<svg width="255" height="84" viewBox="0 0 255 84" fill="none" xmlns="http://www.w3.org/2000/svg">
<path d="M12 3L254 3" stroke="white" stroke-opacity="0.5" stroke-linecap="round" stroke-dasharray="2 2"/>
<path d="M12 15L254 15" stroke="white" stroke-opacity="0.5" stroke-linecap="round" stroke-dasharray="2 2"/>
<path d="M12 27L254 27" stroke="white" stroke-opacity="0.5" stroke-linecap="round" stroke-dasharray="2 2"/>
<path d="M12 39L254 39" stroke="white" stroke-opacity="0.5" stroke-linecap="round" stroke-dasharray="2 2"/>
<path d="M12 51L254 51" stroke="white" stroke-opacity="0.5" stroke-linecap="round" stroke-dasharray="2 2"/>
<path d="M12 63L254 63" stroke="white" stroke-opacity="0.5" stroke-linecap="round" stroke-dasharray="2 2"/>
<path d="M12 75L254 75" stroke="white" stroke-linecap="round"/>
<path d="M2.46875 1.97461V3.97266H2.92188V4.28906H2.46875V5H2.09766V4.28906H0.685547V3.99023C0.936849 3.70768 1.18945 3.38216 1.44336 3.01367C1.69727 2.64518 1.9069 2.29883 2.07227 1.97461H2.46875ZM1.11523 3.97266H2.09766V2.53125C1.96224 2.77474 1.81706 3.01107 1.66211 3.24023C1.50716 3.4681 1.32487 3.71224 1.11523 3.97266ZM4.81641 1.97461V3.97266H5.26953V4.28906H4.81641V5H4.44531V4.28906H3.0332V3.99023C3.28451 3.70768 3.53711 3.38216 3.79102 3.01367C4.04492 2.64518 4.25456 2.29883 4.41992 1.97461H4.81641ZM3.46289 3.97266H4.44531V2.53125C4.3099 2.77474 4.16471 3.01107 4.00977 3.24023C3.85482 3.4681 3.67253 3.71224 3.46289 3.97266Z" fill="white"/>
<path d="M2.46875 13.9746V15.9727H2.92188V16.2891H2.46875V17H2.09766V16.2891H0.685547V15.9902C0.936849 15.7077 1.18945 15.3822 1.44336 15.0137C1.69727 14.6452 1.9069 14.2988 2.07227 13.9746H2.46875ZM1.11523 15.9727H2.09766V14.5312C1.96224 14.7747 1.81706 15.0111 1.66211 15.2402C1.50716 15.4681 1.32487 15.7122 1.11523 15.9727ZM4.11328 17V14.4121C4.05339 14.472 3.95182 14.5391 3.80859 14.6133C3.66667 14.6875 3.53516 14.7396 3.41406 14.7695V14.3945C3.57422 14.3503 3.74544 14.2799 3.92773 14.1836C4.11003 14.0859 4.25 13.9941 4.34766 13.9082H4.49219V17H4.11328Z" fill="white"/>
<path d="M0.931641 28.4941C1.13867 28.6543 1.3724 28.7344 1.63281 28.7344C1.84115 28.7344 2.00586 28.6836 2.12695 28.582C2.24935 28.4792 2.31055 28.3418 2.31055 28.1699C2.31055 27.7871 2.03646 27.5957 1.48828 27.5957H1.23633V27.2793H1.47656C1.96224 27.2793 2.20508 27.0996 2.20508 26.7402C2.20508 26.4082 2.01953 26.2422 1.64844 26.2422C1.4362 26.2422 1.23633 26.3138 1.04883 26.457V26.0957C1.24674 25.9811 1.47786 25.9238 1.74219 25.9238C2 25.9238 2.20703 25.9915 2.36328 26.127C2.51953 26.2611 2.59766 26.4355 2.59766 26.6504C2.59766 27.0462 2.39583 27.3008 1.99219 27.4141V27.4219C2.21094 27.4453 2.38346 27.5228 2.50977 27.6543C2.63737 27.7845 2.70117 27.9473 2.70117 28.1426C2.70117 28.4147 2.60286 28.6341 2.40625 28.8008C2.21094 28.9674 1.95052 29.0508 1.625 29.0508C1.33854 29.0508 1.10742 28.9974 0.931641 28.8906V28.4941ZM3.19141 28.1562C3.19141 27.9818 3.24349 27.821 3.34766 27.6738C3.45182 27.5267 3.58594 27.4219 3.75 27.3594C3.61849 27.2852 3.51432 27.1901 3.4375 27.0742C3.36068 26.9583 3.32227 26.8327 3.32227 26.6973C3.32227 26.554 3.35872 26.4232 3.43164 26.3047C3.50586 26.1862 3.60807 26.0931 3.73828 26.0254C3.86979 25.9577 4.01432 25.9238 4.17188 25.9238C4.33073 25.9238 4.47591 25.9577 4.60742 26.0254C4.73893 26.0918 4.84115 26.1842 4.91406 26.3027C4.98698 26.4212 5.02344 26.5527 5.02344 26.6973C5.02344 26.8301 4.98568 26.9551 4.91016 27.0723C4.83594 27.1882 4.73242 27.2839 4.59961 27.3594C4.76367 27.4232 4.89714 27.5286 5 27.6758C5.10286 27.8229 5.1543 27.9831 5.1543 28.1562C5.1543 28.3281 5.11328 28.4824 5.03125 28.6191C4.94922 28.7546 4.83268 28.86 4.68164 28.9355C4.5306 29.0111 4.36068 29.0488 4.17188 29.0488C3.98438 29.0488 3.81576 29.0111 3.66602 28.9355C3.51628 28.86 3.39974 28.7539 3.31641 28.6172C3.23307 28.4805 3.19141 28.3268 3.19141 28.1562ZM3.56641 28.1387C3.56641 28.3184 3.62174 28.4622 3.73242 28.5703C3.8431 28.6784 3.99023 28.7324 4.17383 28.7324C4.35352 28.7324 4.5 28.6777 4.61328 28.5684C4.72786 28.4577 4.78516 28.3145 4.78516 28.1387C4.78516 27.972 4.72721 27.832 4.61133 27.7188C4.49674 27.6042 4.35091 27.5469 4.17383 27.5469C3.99805 27.5469 3.85286 27.6029 3.73828 27.7148C3.6237 27.8255 3.56641 27.9668 3.56641 28.1387ZM3.67578 26.7285C3.67578 26.8639 3.72396 26.9805 3.82031 27.0781C3.91667 27.1745 4.03451 27.2227 4.17383 27.2227C4.31055 27.2227 4.42839 27.1738 4.52734 27.0762C4.6276 26.9785 4.67773 26.8626 4.67773 26.7285C4.67773 26.5918 4.62956 26.4759 4.5332 26.3809C4.43815 26.2858 4.31836 26.2383 4.17383 26.2383C4.0306 26.2383 3.91146 26.2852 3.81641 26.3789C3.72266 26.4714 3.67578 26.5879 3.67578 26.7285Z" fill="white"/>
<path d="M0.931641 40.4941C1.13867 40.6543 1.3724 40.7344 1.63281 40.7344C1.84115 40.7344 2.00586 40.6836 2.12695 40.582C2.24935 40.4792 2.31055 40.3418 2.31055 40.1699C2.31055 39.7871 2.03646 39.5957 1.48828 39.5957H1.23633V39.2793H1.47656C1.96224 39.2793 2.20508 39.0996 2.20508 38.7402C2.20508 38.4082 2.01953 38.2422 1.64844 38.2422C1.4362 38.2422 1.23633 38.3138 1.04883 38.457V38.0957C1.24674 37.9811 1.47786 37.9238 1.74219 37.9238C2 37.9238 2.20703 37.9915 2.36328 38.127C2.51953 38.2611 2.59766 38.4355 2.59766 38.6504C2.59766 39.0462 2.39583 39.3008 1.99219 39.4141V39.4219C2.21094 39.4453 2.38346 39.5228 2.50977 39.6543C2.63737 39.7845 2.70117 39.9473 2.70117 40.1426C2.70117 40.4147 2.60286 40.6341 2.40625 40.8008C2.21094 40.9674 1.95052 41.0508 1.625 41.0508C1.33854 41.0508 1.10742 40.9974 0.931641 40.8906V40.4941ZM5.05859 40.0664C5.05859 40.362 4.96029 40.6003 4.76367 40.7812C4.56836 40.9622 4.30534 41.0527 3.97461 41.0527C3.69076 41.0527 3.47917 41.0104 3.33984 40.9258V40.5352C3.54427 40.668 3.7526 40.7344 3.96484 40.7344C4.17578 40.7344 4.3457 40.6764 4.47461 40.5605C4.60482 40.4434 4.66992 40.2884 4.66992 40.0957C4.66992 39.903 4.60221 39.7533 4.4668 39.6465C4.33268 39.5384 4.14258 39.4844 3.89648 39.4844C3.70638 39.4844 3.53516 39.4928 3.38281 39.5098L3.49414 37.9746H4.9082V38.3105H3.81641L3.75391 39.168L4.0293 39.1562C4.34961 39.1562 4.60091 39.2363 4.7832 39.3965C4.9668 39.5553 5.05859 39.7786 5.05859 40.0664Z" fill="white"/>
<path d="M0.931641 52.4941C1.13867 52.6543 1.3724 52.7344 1.63281 52.7344C1.84115 52.7344 2.00586 52.6836 2.12695 52.582C2.24935 52.4792 2.31055 52.3418 2.31055 52.1699C2.31055 51.7871 2.03646 51.5957 1.48828 51.5957H1.23633V51.2793H1.47656C1.96224 51.2793 2.20508 51.0996 2.20508 50.7402C2.20508 50.4082 2.01953 50.2422 1.64844 50.2422C1.4362 50.2422 1.23633 50.3138 1.04883 50.457V50.0957C1.24674 49.9811 1.47786 49.9238 1.74219 49.9238C2 49.9238 2.20703 49.9915 2.36328 50.127C2.51953 50.2611 2.59766 50.4355 2.59766 50.6504C2.59766 51.0462 2.39583 51.3008 1.99219 51.4141V51.4219C2.21094 51.4453 2.38346 51.5228 2.50977 51.6543C2.63737 51.7845 2.70117 51.9473 2.70117 52.1426C2.70117 52.4147 2.60286 52.6341 2.40625 52.8008C2.21094 52.9674 1.95052 53.0508 1.625 53.0508C1.33854 53.0508 1.10742 52.9974 0.931641 52.8906V52.4941ZM4.66602 50.7676C4.66602 50.6048 4.61458 50.4772 4.51172 50.3848C4.40885 50.291 4.26888 50.2441 4.0918 50.2441C3.9668 50.2441 3.84049 50.276 3.71289 50.3398C3.58529 50.4036 3.46615 50.4948 3.35547 50.6133V50.2422C3.45443 50.1393 3.56641 50.0605 3.69141 50.0059C3.81771 49.9512 3.96549 49.9238 4.13477 49.9238C4.4082 49.9238 4.62826 49.9974 4.79492 50.1445C4.96159 50.2904 5.04492 50.4883 5.04492 50.7383C5.04492 50.9609 4.99349 51.1536 4.89062 51.3164C4.78906 51.4792 4.61458 51.6458 4.36719 51.8164C4.11458 51.9909 3.94531 52.1159 3.85938 52.1914C3.77474 52.2669 3.71549 52.3392 3.68164 52.4082C3.64779 52.4772 3.63086 52.5612 3.63086 52.6602H5.13477V53H3.23242V52.8496C3.23242 52.6751 3.25586 52.5273 3.30273 52.4062C3.35091 52.2839 3.42969 52.1654 3.53906 52.0508C3.64844 51.9349 3.81901 51.7962 4.05078 51.6348C4.28776 51.4681 4.44922 51.3223 4.53516 51.1973C4.6224 51.071 4.66602 50.9277 4.66602 50.7676Z" fill="white"/>
<path d="M2.31836 62.7676C2.31836 62.6048 2.26693 62.4772 2.16406 62.3848C2.0612 62.291 1.92122 62.2441 1.74414 62.2441C1.61914 62.2441 1.49284 62.276 1.36523 62.3398C1.23763 62.4036 1.11849 62.4948 1.00781 62.6133V62.2422C1.10677 62.1393 1.21875 62.0605 1.34375 62.0059C1.47005 61.9512 1.61784 61.9238 1.78711 61.9238C2.06055 61.9238 2.2806 61.9974 2.44727 62.1445C2.61393 62.2904 2.69727 62.4883 2.69727 62.7383C2.69727 62.9609 2.64583 63.1536 2.54297 63.3164C2.44141 63.4792 2.26693 63.6458 2.01953 63.8164C1.76693 63.9909 1.59766 64.1159 1.51172 64.1914C1.42708 64.2669 1.36784 64.3392 1.33398 64.4082C1.30013 64.4772 1.2832 64.5612 1.2832 64.6602H2.78711V65H0.884766V64.8496C0.884766 64.6751 0.908203 64.5273 0.955078 64.4062C1.00326 64.2839 1.08203 64.1654 1.19141 64.0508C1.30078 63.9349 1.47135 63.7962 1.70312 63.6348C1.9401 63.4681 2.10156 63.3223 2.1875 63.1973C2.27474 63.071 2.31836 62.9277 2.31836 62.7676ZM3.36133 64.5898C3.52799 64.6862 3.70768 64.7344 3.90039 64.7344C4.17122 64.7344 4.38086 64.6276 4.5293 64.4141C4.67904 64.2005 4.75391 63.8971 4.75391 63.5039L4.75 63.5059L4.74609 63.5039C4.61328 63.7565 4.38997 63.8828 4.07617 63.8828C3.82227 63.8828 3.61198 63.7956 3.44531 63.6211C3.27865 63.4466 3.19531 63.2201 3.19531 62.9414C3.19531 62.6445 3.28646 62.401 3.46875 62.2109C3.65104 62.0195 3.88737 61.9238 4.17773 61.9238C4.47852 61.9238 4.71354 62.0423 4.88281 62.2793C5.05208 62.515 5.13672 62.8587 5.13672 63.3105C5.13672 63.8691 5.02734 64.2988 4.80859 64.5996C4.58984 64.9004 4.28711 65.0508 3.90039 65.0508C3.68815 65.0508 3.50846 65.0163 3.36133 64.9473V64.5898ZM3.58203 62.8926C3.58203 63.0957 3.63411 63.2572 3.73828 63.377C3.84245 63.4954 3.98633 63.5547 4.16992 63.5547C4.32878 63.5547 4.46224 63.5007 4.57031 63.3926C4.67839 63.2832 4.73242 63.151 4.73242 62.9961C4.73242 62.7786 4.67839 62.599 4.57031 62.457C4.46354 62.3138 4.32227 62.2422 4.14648 62.2422C3.98372 62.2422 3.84896 62.304 3.74219 62.4277C3.63542 62.5514 3.58203 62.7064 3.58203 62.8926Z" fill="white"/>
<path d="M2.31836 74.7676C2.31836 74.6048 2.26693 74.4772 2.16406 74.3848C2.0612 74.291 1.92122 74.2441 1.74414 74.2441C1.61914 74.2441 1.49284 74.276 1.36523 74.3398C1.23763 74.4036 1.11849 74.4948 1.00781 74.6133V74.2422C1.10677 74.1393 1.21875 74.0605 1.34375 74.0059C1.47005 73.9512 1.61784 73.9238 1.78711 73.9238C2.06055 73.9238 2.2806 73.9974 2.44727 74.1445C2.61393 74.2904 2.69727 74.4883 2.69727 74.7383C2.69727 74.9609 2.64583 75.1536 2.54297 75.3164C2.44141 75.4792 2.26693 75.6458 2.01953 75.8164C1.76693 75.9909 1.59766 76.1159 1.51172 76.1914C1.42708 76.2669 1.36784 76.3392 1.33398 76.4082C1.30013 76.4772 1.2832 76.5612 1.2832 76.6602H2.78711V77H0.884766V76.8496C0.884766 76.6751 0.908203 76.5273 0.955078 76.4062C1.00326 76.2839 1.08203 76.1654 1.19141 76.0508C1.30078 75.9349 1.47135 75.7962 1.70312 75.6348C1.9401 75.4681 2.10156 75.3223 2.1875 75.1973C2.27474 75.071 2.31836 74.9277 2.31836 74.7676ZM4.98828 74.3633C4.83073 74.2826 4.66602 74.2422 4.49414 74.2422C4.23242 74.2422 4.02214 74.3561 3.86328 74.584C3.70443 74.8118 3.6237 75.123 3.62109 75.5176H3.63086C3.77409 75.2402 4.0026 75.1016 4.31641 75.1016C4.57812 75.1016 4.78711 75.1868 4.94336 75.3574C5.09961 75.528 5.17773 75.7546 5.17773 76.0371C5.17773 76.3327 5.08724 76.5755 4.90625 76.7656C4.72656 76.9557 4.49674 77.0508 4.2168 77.0508C3.90951 77.0508 3.66797 76.931 3.49219 76.6914C3.31771 76.4505 3.23047 76.1094 3.23047 75.668C3.23047 75.1341 3.34505 74.7103 3.57422 74.3965C3.80469 74.0814 4.10742 73.9238 4.48242 73.9238C4.69727 73.9238 4.86589 73.9531 4.98828 74.0117V74.3633ZM3.64453 76.0098C3.64453 76.209 3.69727 76.3796 3.80273 76.5215C3.90951 76.6634 4.05078 76.7344 4.22656 76.7344C4.39323 76.7344 4.52865 76.6732 4.63281 76.5508C4.73698 76.4284 4.78906 76.2708 4.78906 76.0781C4.78906 75.8698 4.73958 75.7077 4.64062 75.5918C4.54297 75.4759 4.40365 75.418 4.22266 75.418C4.05078 75.418 3.91146 75.4766 3.80469 75.5938C3.69792 75.7109 3.64453 75.8496 3.64453 76.0098Z" fill="white"/>
<path d="M28.7656 83V80.4121C28.7057 80.472 28.6042 80.5391 28.4609 80.6133C28.319 80.6875 28.1875 80.7396 28.0664 80.7695V80.3945C28.2266 80.3503 28.3978 80.2799 28.5801 80.1836C28.7624 80.0859 28.9023 79.9941 29 79.9082H29.1445V83H28.7656ZM30.1758 81.5469C30.1758 81.013 30.2643 80.6094 30.4414 80.3359C30.6185 80.0612 30.875 79.9238 31.2109 79.9238C31.8516 79.9238 32.1719 80.4408 32.1719 81.4746C32.1719 81.985 32.0814 82.3757 31.9004 82.6465C31.7207 82.916 31.4681 83.0508 31.1426 83.0508C30.8353 83.0508 30.597 82.9225 30.4277 82.666C30.2598 82.4095 30.1758 82.0365 30.1758 81.5469ZM30.5664 81.5293C30.5664 82.3327 30.7702 82.7344 31.1777 82.7344C31.5788 82.7344 31.7793 82.3262 31.7793 81.5098C31.7793 80.6647 31.5827 80.2422 31.1895 80.2422C30.7741 80.2422 30.5664 80.6712 30.5664 81.5293Z" fill="white"/>
<path d="M52.8739 80.7676C52.8739 80.6048 52.8225 80.4772 52.7196 80.3848C52.6167 80.291 52.4768 80.2441 52.2997 80.2441C52.1747 80.2441 52.0484 80.276 51.9208 80.3398C51.7932 80.4036 51.674 80.4948 51.5634 80.6133V80.2422C51.6623 80.1393 51.7743 80.0605 51.8993 80.0059C52.0256 79.9512 52.1734 79.9238 52.3427 79.9238C52.6161 79.9238 52.8361 79.9974 53.0028 80.1445C53.1695 80.2904 53.2528 80.4883 53.2528 80.7383C53.2528 80.9609 53.2014 81.1536 53.0985 81.3164C52.9969 81.4792 52.8225 81.6458 52.5751 81.8164C52.3225 81.9909 52.1532 82.1159 52.0673 82.1914C51.9826 82.2669 51.9234 82.3392 51.8895 82.4082C51.8557 82.4772 51.8387 82.5612 51.8387 82.6602H53.3427V83H51.4403V82.8496C51.4403 82.6751 51.4637 82.5273 51.5106 82.4062C51.5588 82.2839 51.6376 82.1654 51.7469 82.0508C51.8563 81.9349 52.0269 81.7962 52.2587 81.6348C52.4956 81.4681 52.6571 81.3223 52.743 81.1973C52.8303 81.071 52.8739 80.9277 52.8739 80.7676ZM53.7313 81.5469C53.7313 81.013 53.8199 80.6094 53.9969 80.3359C54.174 80.0612 54.4305 79.9238 54.7665 79.9238C55.4071 79.9238 55.7274 80.4408 55.7274 81.4746C55.7274 81.985 55.6369 82.3757 55.4559 82.6465C55.2762 82.916 55.0236 83.0508 54.6981 83.0508C54.3908 83.0508 54.1525 82.9225 53.9833 82.666C53.8153 82.4095 53.7313 82.0365 53.7313 81.5469ZM54.1219 81.5293C54.1219 82.3327 54.3257 82.7344 54.7333 82.7344C55.1343 82.7344 55.3348 82.3262 55.3348 81.5098C55.3348 80.6647 55.1382 80.2422 54.745 80.2422C54.3296 80.2422 54.1219 80.6712 54.1219 81.5293Z" fill="white"/>
<path d="M75.0427 82.4941C75.2498 82.6543 75.4835 82.7344 75.7439 82.7344C75.9522 82.7344 76.1169 82.6836 76.238 82.582C76.3604 82.4792 76.4216 82.3418 76.4216 82.1699C76.4216 81.7871 76.1475 81.5957 75.5994 81.5957H75.3474V81.2793H75.5876C76.0733 81.2793 76.3162 81.0996 76.3162 80.7402C76.3162 80.4082 76.1306 80.2422 75.7595 80.2422C75.5473 80.2422 75.3474 80.3138 75.1599 80.457V80.0957C75.3578 79.9811 75.5889 79.9238 75.8533 79.9238C76.1111 79.9238 76.3181 79.9915 76.4744 80.127C76.6306 80.2611 76.7087 80.4355 76.7087 80.6504C76.7087 81.0462 76.5069 81.3008 76.1033 81.4141V81.4219C76.322 81.4453 76.4945 81.5228 76.6208 81.6543C76.7485 81.7845 76.8123 81.9473 76.8123 82.1426C76.8123 82.4147 76.7139 82.6341 76.5173 82.8008C76.322 82.9674 76.0616 83.0508 75.7361 83.0508C75.4496 83.0508 75.2185 82.9974 75.0427 82.8906V82.4941ZM77.2869 81.5469C77.2869 81.013 77.3754 80.6094 77.5525 80.3359C77.7296 80.0612 77.9861 79.9238 78.322 79.9238C78.9626 79.9238 79.283 80.4408 79.283 81.4746C79.283 81.985 79.1925 82.3757 79.0115 82.6465C78.8318 82.916 78.5792 83.0508 78.2537 83.0508C77.9464 83.0508 77.7081 82.9225 77.5388 82.666C77.3708 82.4095 77.2869 82.0365 77.2869 81.5469ZM77.6775 81.5293C77.6775 82.3327 77.8813 82.7344 78.2888 82.7344C78.6899 82.7344 78.8904 82.3262 78.8904 81.5098C78.8904 80.6647 78.6938 80.2422 78.3005 80.2422C77.8852 80.2422 77.6775 80.6712 77.6775 81.5293Z" fill="white"/>
<path d="M100.135 79.9746V81.9727H100.589V82.2891H100.135V83H99.7643V82.2891H98.3522V81.9902C98.6035 81.7077 98.8561 81.3822 99.11 81.0137C99.364 80.6452 99.5736 80.2988 99.739 79.9746H100.135ZM98.7819 81.9727H99.7643V80.5312C99.6289 80.7747 99.4837 81.0111 99.3288 81.2402C99.1738 81.4681 98.9916 81.7122 98.7819 81.9727ZM100.842 81.5469C100.842 81.013 100.931 80.6094 101.108 80.3359C101.285 80.0612 101.542 79.9238 101.878 79.9238C102.518 79.9238 102.839 80.4408 102.839 81.4746C102.839 81.985 102.748 82.3757 102.567 82.6465C102.387 82.916 102.135 83.0508 101.809 83.0508C101.502 83.0508 101.264 82.9225 101.094 82.666C100.926 82.4095 100.842 82.0365 100.842 81.5469ZM101.233 81.5293C101.233 82.3327 101.437 82.7344 101.844 82.7344C102.245 82.7344 102.446 82.3262 102.446 81.5098C102.446 80.6647 102.249 80.2422 101.856 80.2422C101.441 80.2422 101.233 80.6712 101.233 81.5293Z" fill="white"/>
<path d="M123.933 82.0664C123.933 82.362 123.835 82.6003 123.638 82.7812C123.443 82.9622 123.18 83.0527 122.849 83.0527C122.565 83.0527 122.354 83.0104 122.214 82.9258V82.5352C122.419 82.668 122.627 82.7344 122.839 82.7344C123.05 82.7344 123.22 82.6764 123.349 82.5605C123.479 82.4434 123.544 82.2884 123.544 82.0957C123.544 81.903 123.477 81.7533 123.341 81.6465C123.207 81.5384 123.017 81.4844 122.771 81.4844C122.581 81.4844 122.41 81.4928 122.257 81.5098L122.369 79.9746H123.783V80.3105H122.691L122.628 81.168L122.904 81.1562C123.224 81.1562 123.475 81.2363 123.658 81.3965C123.841 81.5553 123.933 81.7786 123.933 82.0664ZM124.398 81.5469C124.398 81.013 124.487 80.6094 124.664 80.3359C124.841 80.0612 125.097 79.9238 125.433 79.9238C126.074 79.9238 126.394 80.4408 126.394 81.4746C126.394 81.985 126.304 82.3757 126.123 82.6465C125.943 82.916 125.69 83.0508 125.365 83.0508C125.058 83.0508 124.819 82.9225 124.65 82.666C124.482 82.4095 124.398 82.0365 124.398 81.5469ZM124.789 81.5293C124.789 82.3327 124.992 82.7344 125.4 82.7344C125.801 82.7344 126.002 82.3262 126.002 81.5098C126.002 80.6647 125.805 80.2422 125.412 80.2422C124.996 80.2422 124.789 80.6712 124.789 81.5293Z" fill="white"/>
<path d="M147.418 80.3633C147.261 80.2826 147.096 80.2422 146.924 80.2422C146.663 80.2422 146.452 80.3561 146.293 80.584C146.135 80.8118 146.054 81.123 146.051 81.5176H146.061C146.204 81.2402 146.433 81.1016 146.747 81.1016C147.008 81.1016 147.217 81.1868 147.373 81.3574C147.53 81.528 147.608 81.7546 147.608 82.0371C147.608 82.3327 147.517 82.5755 147.336 82.7656C147.157 82.9557 146.927 83.0508 146.647 83.0508C146.34 83.0508 146.098 82.931 145.922 82.6914C145.748 82.4505 145.661 82.1094 145.661 81.668C145.661 81.1341 145.775 80.7103 146.004 80.3965C146.235 80.0814 146.538 79.9238 146.913 79.9238C147.127 79.9238 147.296 79.9531 147.418 80.0117V80.3633ZM146.075 82.0098C146.075 82.209 146.127 82.3796 146.233 82.5215C146.34 82.6634 146.481 82.7344 146.657 82.7344C146.823 82.7344 146.959 82.6732 147.063 82.5508C147.167 82.4284 147.219 82.2708 147.219 82.0781C147.219 81.8698 147.17 81.7077 147.071 81.5918C146.973 81.4759 146.834 81.418 146.653 81.418C146.481 81.418 146.342 81.4766 146.235 81.5938C146.128 81.7109 146.075 81.8496 146.075 82.0098ZM147.954 81.5469C147.954 81.013 148.042 80.6094 148.219 80.3359C148.396 80.0612 148.653 79.9238 148.989 79.9238C149.629 79.9238 149.95 80.4408 149.95 81.4746C149.95 81.985 149.859 82.3757 149.678 82.6465C149.498 82.916 149.246 83.0508 148.92 83.0508C148.613 83.0508 148.375 82.9225 148.206 82.666C148.038 82.4095 147.954 82.0365 147.954 81.5469ZM148.344 81.5293C148.344 82.3327 148.548 82.7344 148.956 82.7344C149.357 82.7344 149.557 82.3262 149.557 81.5098C149.557 80.6647 149.36 80.2422 148.967 80.2422C148.552 80.2422 148.344 80.6712 148.344 81.5293Z" fill="white"/>
<path d="M171.124 80.2109C170.807 80.7656 170.557 81.2793 170.374 81.752C170.193 82.2233 170.081 82.6393 170.038 83H169.64C169.688 82.6445 169.802 82.2389 169.982 81.7832C170.161 81.3275 170.402 80.8372 170.702 80.3125H169.202V79.9746H171.124V80.2109ZM171.509 81.5469C171.509 81.013 171.598 80.6094 171.775 80.3359C171.952 80.0612 172.208 79.9238 172.544 79.9238C173.185 79.9238 173.505 80.4408 173.505 81.4746C173.505 81.985 173.415 82.3757 173.234 82.6465C173.054 82.916 172.801 83.0508 172.476 83.0508C172.169 83.0508 171.93 82.9225 171.761 82.666C171.593 82.4095 171.509 82.0365 171.509 81.5469ZM171.9 81.5293C171.9 82.3327 172.103 82.7344 172.511 82.7344C172.912 82.7344 173.113 82.3262 173.113 81.5098C173.113 80.6647 172.916 80.2422 172.523 80.2422C172.107 80.2422 171.9 80.6712 171.9 81.5293Z" fill="white"/>
<path d="M192.733 82.1562C192.733 81.9818 192.785 81.821 192.889 81.6738C192.993 81.5267 193.127 81.4219 193.291 81.3594C193.16 81.2852 193.056 81.1901 192.979 81.0742C192.902 80.9583 192.864 80.8327 192.864 80.6973C192.864 80.554 192.9 80.4232 192.973 80.3047C193.047 80.1862 193.149 80.0931 193.28 80.0254C193.411 79.9577 193.556 79.9238 193.713 79.9238C193.872 79.9238 194.017 79.9577 194.149 80.0254C194.28 80.0918 194.382 80.1842 194.455 80.3027C194.528 80.4212 194.565 80.5527 194.565 80.6973C194.565 80.8301 194.527 80.9551 194.451 81.0723C194.377 81.1882 194.274 81.2839 194.141 81.3594C194.305 81.4232 194.438 81.5286 194.541 81.6758C194.644 81.8229 194.696 81.9831 194.696 82.1562C194.696 82.3281 194.655 82.4824 194.573 82.6191C194.49 82.7546 194.374 82.86 194.223 82.9355C194.072 83.0111 193.902 83.0488 193.713 83.0488C193.526 83.0488 193.357 83.0111 193.207 82.9355C193.058 82.86 192.941 82.7539 192.858 82.6172C192.774 82.4805 192.733 82.3268 192.733 82.1562ZM193.108 82.1387C193.108 82.3184 193.163 82.4622 193.274 82.5703C193.384 82.6784 193.531 82.7324 193.715 82.7324C193.895 82.7324 194.041 82.6777 194.155 82.5684C194.269 82.4577 194.326 82.3145 194.326 82.1387C194.326 81.972 194.268 81.832 194.153 81.7188C194.038 81.6042 193.892 81.5469 193.715 81.5469C193.539 81.5469 193.394 81.6029 193.28 81.7148C193.165 81.8255 193.108 81.9668 193.108 82.1387ZM193.217 80.7285C193.217 80.8639 193.265 80.9805 193.362 81.0781C193.458 81.1745 193.576 81.2227 193.715 81.2227C193.852 81.2227 193.97 81.1738 194.069 81.0762C194.169 80.9785 194.219 80.8626 194.219 80.7285C194.219 80.5918 194.171 80.4759 194.074 80.3809C193.979 80.2858 193.86 80.2383 193.715 80.2383C193.572 80.2383 193.453 80.2852 193.358 80.3789C193.264 80.4714 193.217 80.5879 193.217 80.7285ZM195.065 81.5469C195.065 81.013 195.153 80.6094 195.33 80.3359C195.507 80.0612 195.764 79.9238 196.1 79.9238C196.74 79.9238 197.061 80.4408 197.061 81.4746C197.061 81.985 196.97 82.3757 196.789 82.6465C196.61 82.916 196.357 83.0508 196.031 83.0508C195.724 83.0508 195.486 82.9225 195.317 82.666C195.149 82.4095 195.065 82.0365 195.065 81.5469ZM195.455 81.5293C195.455 82.3327 195.659 82.7344 196.067 82.7344C196.468 82.7344 196.668 82.3262 196.668 81.5098C196.668 80.6647 196.472 80.2422 196.078 80.2422C195.663 80.2422 195.455 80.6712 195.455 81.5293Z" fill="white"/>
<path d="M216.458 82.5898C216.625 82.6862 216.804 82.7344 216.997 82.7344C217.268 82.7344 217.478 82.6276 217.626 82.4141C217.776 82.2005 217.851 81.8971 217.851 81.5039L217.847 81.5059L217.843 81.5039C217.71 81.7565 217.487 81.8828 217.173 81.8828C216.919 81.8828 216.709 81.7956 216.542 81.6211C216.375 81.4466 216.292 81.2201 216.292 80.9414C216.292 80.6445 216.383 80.401 216.566 80.2109C216.748 80.0195 216.984 79.9238 217.275 79.9238C217.575 79.9238 217.81 80.0423 217.98 80.2793C218.149 80.515 218.234 80.8587 218.234 81.3105C218.234 81.8691 218.124 82.2988 217.905 82.5996C217.687 82.9004 217.384 83.0508 216.997 83.0508C216.785 83.0508 216.605 83.0163 216.458 82.9473V82.5898ZM216.679 80.8926C216.679 81.0957 216.731 81.2572 216.835 81.377C216.939 81.4954 217.083 81.5547 217.267 81.5547C217.426 81.5547 217.559 81.5007 217.667 81.3926C217.775 81.2832 217.829 81.151 217.829 80.9961C217.829 80.7786 217.775 80.599 217.667 80.457C217.56 80.3138 217.419 80.2422 217.243 80.2422C217.081 80.2422 216.946 80.304 216.839 80.4277C216.732 80.5514 216.679 80.7064 216.679 80.8926ZM218.62 81.5469C218.62 81.013 218.709 80.6094 218.886 80.3359C219.063 80.0612 219.319 79.9238 219.655 79.9238C220.296 79.9238 220.616 80.4408 220.616 81.4746C220.616 81.985 220.526 82.3757 220.345 82.6465C220.165 82.916 219.913 83.0508 219.587 83.0508C219.28 83.0508 219.041 82.9225 218.872 82.666C218.704 82.4095 218.62 82.0365 218.62 81.5469ZM219.011 81.5293C219.011 82.3327 219.215 82.7344 219.622 82.7344C220.023 82.7344 220.224 82.3262 220.224 81.5098C220.224 80.6647 220.027 80.2422 219.634 80.2422C219.219 80.2422 219.011 80.6712 219.011 81.5293Z" fill="white"/>
<path d="M239.592 83V80.4121C239.532 80.472 239.43 80.5391 239.287 80.6133C239.145 80.6875 239.014 80.7396 238.893 80.7695V80.3945C239.053 80.3503 239.224 80.2799 239.406 80.1836C239.589 80.0859 239.729 79.9941 239.826 79.9082H239.971V83H239.592ZM241.002 81.5469C241.002 81.013 241.09 80.6094 241.268 80.3359C241.445 80.0612 241.701 79.9238 242.037 79.9238C242.678 79.9238 242.998 80.4408 242.998 81.4746C242.998 81.985 242.908 82.3757 242.727 82.6465C242.547 82.916 242.294 83.0508 241.969 83.0508C241.661 83.0508 241.423 82.9225 241.254 82.666C241.086 82.4095 241.002 82.0365 241.002 81.5469ZM241.393 81.5293C241.393 82.3327 241.596 82.7344 242.004 82.7344C242.405 82.7344 242.605 82.3262 242.605 81.5098C242.605 80.6647 242.409 80.2422 242.016 80.2422C241.6 80.2422 241.393 80.6712 241.393 81.5293ZM243.35 81.5469C243.35 81.013 243.438 80.6094 243.615 80.3359C243.792 80.0612 244.049 79.9238 244.385 79.9238C245.025 79.9238 245.346 80.4408 245.346 81.4746C245.346 81.985 245.255 82.3757 245.074 82.6465C244.895 82.916 244.642 83.0508 244.316 83.0508C244.009 83.0508 243.771 82.9225 243.602 82.666C243.434 82.4095 243.35 82.0365 243.35 81.5469ZM243.74 81.5293C243.74 82.3327 243.944 82.7344 244.352 82.7344C244.753 82.7344 244.953 82.3262 244.953 81.5098C244.953 80.6647 244.757 80.2422 244.363 80.2422C243.948 80.2422 243.74 80.6712 243.74 81.5293Z" fill="white"/>
<mask id="mask0_72_787" style="mask-type:luminance" maskUnits="userSpaceOnUse" x="8" y="1" width="244" height="72">
<path d="M252 1H8V73H252V1Z" fill="white"/>
</mask>
<g mask="url(#mask0_72_787)">
<path d="M19.0898 52.303L30.7651 45.3766L42.4404 44.1926L54.1156 37.8052L65.7885 36.7229L77.4638 36.1623L89.139 35.6299L100.814 35.671L112.487 28.6147L124.162 32.2035L135.838 35.3463L147.513 31.4849L159.186 24.0931L170.861 21.8139L182.536 29.4502L194.212 25.9481H205.884L217.56 31.4524L229.235 24.9286L240.91 27.4654" stroke="#ED844B" stroke-linecap="square" stroke-linejoin="round"/>
</g>
<mask id="mask1_72_787" style="mask-type:luminance" maskUnits="userSpaceOnUse" x="8" y="1" width="244" height="72">
<path d="M252 1H8V73H252V1Z" fill="white"/>
</mask>
<g mask="url(#mask1_72_787)">
<path d="M19.1052 52.8701C19.1713 52.8702 19.2368 52.8572 19.2979 52.8318C19.359 52.8065 19.4144 52.7694 19.4611 52.7226C19.5077 52.6762 19.5446 52.621 19.5699 52.5603C19.5951 52.4996 19.6081 52.4346 19.6081 52.3689C19.6081 52.3032 19.5951 52.2381 19.5699 52.1774C19.5446 52.1167 19.5077 52.0616 19.4611 52.0151C19.4142 51.9688 19.3587 51.9321 19.2976 51.9072C19.2365 51.8824 19.1711 51.8697 19.1052 51.8701C18.9722 51.8701 18.8447 51.9228 18.7508 52.0166C18.6568 52.1103 18.6039 52.2375 18.6039 52.3701C18.6039 52.5027 18.6568 52.6299 18.7508 52.7237C18.8447 52.8174 18.9722 52.8701 19.1052 52.8701Z" fill="#ED844B" stroke="#ED844B" stroke-width="1.5" stroke-linejoin="round"/>
<path d="M30.7813 45.9372C30.8472 45.9372 30.9125 45.9243 30.9734 45.8992C31.0343 45.8741 31.0897 45.8372 31.1363 45.7908C31.1829 45.7444 31.2199 45.6892 31.2451 45.6286C31.2704 45.5679 31.2834 45.5029 31.2834 45.4372C31.2834 45.3046 31.2305 45.1775 31.1363 45.0837C31.0421 44.9899 30.9144 44.9372 30.7813 44.9372C30.6481 44.9372 30.5204 44.9899 30.4263 45.0837C30.3321 45.1775 30.2792 45.3046 30.2792 45.4372C30.2792 45.5698 30.3321 45.697 30.4263 45.7908C30.5204 45.8846 30.6481 45.9372 30.7813 45.9372Z" fill="#ED844B" stroke="#ED844B" stroke-width="1.5" stroke-linejoin="round"/>
<path d="M42.4565 44.7533C42.5897 44.7533 42.7174 44.7006 42.8115 44.6068C42.9057 44.513 42.9586 44.3859 42.9586 44.2533C42.9586 44.1206 42.9057 43.9935 42.8115 43.8997C42.7174 43.8059 42.5897 43.7533 42.4565 43.7533C42.3234 43.7533 42.1957 43.8059 42.1015 43.8997C42.0074 43.9935 41.9545 44.1206 41.9545 44.2533C41.9545 44.3859 42.0074 44.513 42.1015 44.6068C42.1957 44.7006 42.3234 44.7533 42.4565 44.7533Z" fill="#ED844B" stroke="#ED844B" stroke-width="1.5" stroke-linejoin="round"/>
<path d="M54.1318 38.3658C54.265 38.3658 54.3927 38.3131 54.4868 38.2194C54.581 38.1256 54.6339 37.9984 54.6339 37.8658C54.6339 37.7332 54.581 37.606 54.4868 37.5122C54.3927 37.4185 54.265 37.3658 54.1318 37.3658C53.9987 37.3658 53.871 37.4185 53.7768 37.5122C53.6827 37.606 53.6298 37.7332 53.6298 37.8658C53.6298 37.9984 53.6827 38.1256 53.7768 38.2194C53.871 38.3131 53.9987 38.3658 54.1318 38.3658Z" fill="#ED844B" stroke="#ED844B" stroke-width="1.5" stroke-linejoin="round"/>
<path d="M65.8047 37.2857C65.9378 37.2857 66.0655 37.233 66.1597 37.1393C66.2538 37.0455 66.3067 36.9183 66.3067 36.7857C66.3067 36.6531 66.2538 36.5259 66.1597 36.4322C66.0655 36.3384 65.9378 36.2857 65.8047 36.2857C65.6715 36.2857 65.5438 36.3384 65.4497 36.4322C65.3555 36.5259 65.3026 36.6531 65.3026 36.7857C65.3026 36.9183 65.3555 37.0455 65.4497 37.1393C65.5438 37.233 65.6715 37.2857 65.8047 37.2857Z" fill="#ED844B" stroke="#ED844B" stroke-width="1.5" stroke-linejoin="round"/>
<path d="M77.4799 36.7251C77.6131 36.7251 77.7408 36.6724 77.8349 36.5787C77.9291 36.4849 77.982 36.3577 77.982 36.2251C77.982 36.0925 77.9291 35.9653 77.8349 35.8716C77.7408 35.7778 77.6131 35.7251 77.4799 35.7251C77.3467 35.7251 77.219 35.7778 77.1249 35.8716C77.0307 35.9653 76.9778 36.0925 76.9778 36.2251C76.9778 36.3577 77.0307 36.4849 77.1249 36.5787C77.219 36.6724 77.3467 36.7251 77.4799 36.7251Z" fill="#ED844B" stroke="#ED844B" stroke-width="1.5" stroke-linejoin="round"/>
<path d="M89.1552 36.197C89.2883 36.197 89.416 36.1443 89.5102 36.0505C89.6044 35.9568 89.6573 35.8296 89.6573 35.697C89.6573 35.5644 89.6044 35.4372 89.5102 35.3434C89.416 35.2497 89.2883 35.197 89.1552 35.197C89.022 35.197 88.8943 35.2497 88.8002 35.3434C88.706 35.4372 88.6531 35.5644 88.6531 35.697C88.6531 35.8296 88.706 35.9568 88.8002 36.0505C88.8943 36.1443 89.022 36.197 89.1552 36.197Z" fill="#ED844B" stroke="#ED844B" stroke-width="1.5" stroke-linejoin="round"/>
<path d="M100.83 36.2338C100.964 36.2338 101.091 36.1811 101.186 36.0873C101.28 35.9936 101.333 35.8664 101.333 35.7338C101.333 35.6012 101.28 35.474 101.186 35.3802C101.091 35.2864 100.964 35.2338 100.83 35.2338C100.697 35.2338 100.57 35.2864 100.475 35.3802C100.381 35.474 100.328 35.6012 100.328 35.7338C100.328 35.8664 100.381 35.9936 100.475 36.0873C100.57 36.1811 100.697 36.2338 100.83 36.2338Z" fill="#ED844B" stroke="#ED844B" stroke-width="1.5" stroke-linejoin="round"/>
<path d="M112.503 29.1818C112.636 29.1818 112.764 29.1291 112.858 29.0354C112.952 28.9416 113.005 28.8144 113.005 28.6818C113.005 28.5492 112.952 28.422 112.858 28.3283C112.764 28.2345 112.636 28.1818 112.503 28.1818C112.37 28.1818 112.242 28.2345 112.148 28.3283C112.054 28.422 112.001 28.5492 112.001 28.6818C112.001 28.8144 112.054 28.9416 112.148 29.0354C112.242 29.1291 112.37 29.1818 112.503 29.1818Z" fill="#ED844B" stroke="#ED844B" stroke-width="1.5" stroke-linejoin="round"/>
<path d="M124.18 32.7706C124.313 32.7706 124.441 32.7179 124.535 32.6241C124.63 32.5304 124.683 32.4032 124.683 32.2706C124.683 32.1385 124.63 32.0118 124.537 31.9181C124.49 31.8713 124.434 31.8342 124.373 31.8088C124.312 31.7835 124.246 31.7705 124.18 31.7706C124.046 31.7711 123.919 31.8242 123.825 31.9181C123.755 31.988 123.707 32.0769 123.688 32.1736C123.669 32.2703 123.679 32.3705 123.717 32.4616C123.755 32.5527 123.819 32.6307 123.901 32.6856C123.983 32.7406 124.08 32.7702 124.18 32.7706Z" fill="#ED844B" stroke="#ED844B" stroke-width="1.5" stroke-linejoin="round"/>
<path d="M135.854 35.9113C135.987 35.9113 136.115 35.8586 136.209 35.7648C136.303 35.671 136.356 35.5439 136.356 35.4113C136.356 35.2786 136.303 35.1515 136.209 35.0577C136.115 34.9639 135.987 34.9113 135.854 34.9113C135.721 34.9113 135.593 34.9639 135.499 35.0577C135.405 35.1515 135.352 35.2786 135.352 35.4113C135.352 35.5439 135.405 35.671 135.499 35.7648C135.593 35.8586 135.721 35.9113 135.854 35.9113Z" fill="#ED844B" stroke="#ED844B" stroke-width="1.5" stroke-linejoin="round"/>
<path d="M147.529 32.0498C147.662 32.0498 147.79 31.9971 147.884 31.9033C147.978 31.8096 148.031 31.6824 148.031 31.5498C148.031 31.4172 147.978 31.29 147.884 31.1962C147.79 31.1025 147.662 31.0498 147.529 31.0498C147.396 31.0498 147.268 31.1025 147.174 31.1962C147.08 31.29 147.027 31.4172 147.027 31.5498C147.027 31.6824 147.08 31.8096 147.174 31.9033C147.268 31.9971 147.396 32.0498 147.529 32.0498Z" fill="#ED844B" stroke="#ED844B" stroke-width="1.5" stroke-linejoin="round"/>
<path d="M159.202 24.658C159.335 24.658 159.463 24.6053 159.557 24.5116C159.651 24.4178 159.704 24.2906 159.704 24.158C159.704 24.0254 159.651 23.8982 159.557 23.8045C159.463 23.7107 159.335 23.658 159.202 23.658C159.069 23.658 158.941 23.7107 158.847 23.8045C158.753 23.8982 158.7 24.0254 158.7 24.158C158.7 24.2906 158.753 24.4178 158.847 24.5116C158.941 24.6053 159.069 24.658 159.202 24.658Z" fill="#ED844B" stroke="#ED844B" stroke-width="1.5" stroke-linejoin="round"/>
<path d="M170.877 22.381C171.01 22.381 171.138 22.3283 171.232 22.2345C171.326 22.1407 171.379 22.0136 171.379 21.881C171.379 21.7483 171.326 21.6212 171.232 21.5274C171.138 21.4336 171.01 21.381 170.877 21.381C170.744 21.381 170.616 21.4336 170.522 21.5274C170.428 21.6212 170.375 21.7483 170.375 21.881C170.375 22.0136 170.428 22.1407 170.522 22.2345C170.616 22.3283 170.744 22.381 170.877 22.381Z" fill="#ED844B" stroke="#ED844B" stroke-width="1.5" stroke-linejoin="round"/>
<path d="M182.552 30.0152C182.686 30.0152 182.813 29.9625 182.907 29.8687C183.002 29.7749 183.055 29.6478 183.055 29.5152C183.055 29.3825 183.002 29.2554 182.907 29.1616C182.813 29.0678 182.686 29.0152 182.552 29.0152C182.419 29.0152 182.292 29.0678 182.197 29.1616C182.103 29.2554 182.05 29.3825 182.05 29.5152C182.05 29.6478 182.103 29.7749 182.197 29.8687C182.292 29.9625 182.419 30.0152 182.552 30.0152Z" fill="#ED844B" stroke="#ED844B" stroke-width="1.5" stroke-linejoin="round"/>
<path d="M194.228 26.513C194.361 26.5124 194.488 26.4594 194.582 26.3655C194.676 26.2721 194.729 26.1454 194.73 26.013C194.73 25.8804 194.677 25.7532 194.583 25.6594C194.489 25.5657 194.361 25.513 194.228 25.513C194.095 25.513 193.967 25.5657 193.873 25.6594C193.779 25.7532 193.726 25.8804 193.726 26.013C193.726 26.145 193.778 26.2717 193.871 26.3655C193.918 26.4123 193.973 26.4494 194.035 26.4747C194.096 26.5 194.161 26.513 194.228 26.513Z" fill="#ED844B" stroke="#ED844B" stroke-width="1.5" stroke-linejoin="round"/>
<path d="M205.901 26.513C205.967 26.513 206.033 26.5 206.094 26.4747C206.155 26.4494 206.21 26.4123 206.257 26.3655C206.35 26.2717 206.403 26.145 206.403 26.013C206.403 25.8804 206.35 25.7532 206.256 25.6594C206.162 25.5657 206.034 25.513 205.901 25.513C205.768 25.513 205.64 25.5657 205.546 25.6594C205.452 25.7532 205.399 25.8804 205.399 26.013C205.399 26.1456 205.452 26.2728 205.546 26.3665C205.64 26.4603 205.768 26.513 205.901 26.513Z" fill="#ED844B" stroke="#ED844B" stroke-width="1.5" stroke-linejoin="round"/>
<path d="M217.576 32.0173C217.709 32.0173 217.837 31.9646 217.931 31.8709C218.025 31.7771 218.078 31.6499 218.078 31.5173C218.078 31.3847 218.025 31.2575 217.931 31.1638C217.837 31.07 217.709 31.0173 217.576 31.0173C217.443 31.0173 217.315 31.07 217.221 31.1638C217.127 31.2575 217.074 31.3847 217.074 31.5173C217.074 31.6499 217.127 31.7771 217.221 31.8709C217.315 31.9646 217.443 32.0173 217.576 32.0173Z" fill="#ED844B" stroke="#ED844B" stroke-width="1.5" stroke-linejoin="round"/>
<path d="M229.251 25.4935C229.384 25.4935 229.512 25.4408 229.606 25.3471C229.7 25.2533 229.753 25.1261 229.753 24.9935C229.753 24.8609 229.7 24.7337 229.606 24.64C229.512 24.5462 229.384 24.4935 229.251 24.4935C229.118 24.4935 228.99 24.5462 228.896 24.64C228.802 24.7337 228.749 24.8609 228.749 24.9935C228.749 25.1261 228.802 25.2533 228.896 25.3471C228.99 25.4408 229.118 25.4935 229.251 25.4935Z" fill="#ED844B" stroke="#ED844B" stroke-width="1.5" stroke-linejoin="round"/>
<path d="M240.927 28.0303C241.061 28.0297 241.188 27.9767 241.282 27.8828C241.376 27.7891 241.428 27.6624 241.428 27.5303C241.428 27.3982 241.376 27.2715 241.282 27.1778C241.188 27.0839 241.061 27.0309 240.927 27.0303C240.794 27.0303 240.666 27.083 240.572 27.1768C240.477 27.2705 240.424 27.3977 240.424 27.5303C240.424 27.6629 240.477 27.7901 240.572 27.8839C240.666 27.9776 240.794 28.0303 240.927 28.0303Z" fill="#ED844B" stroke="#ED844B" stroke-width="1.5" stroke-linejoin="round"/>
</g>
<path d="M165.799 19.3418C166.001 19.4928 166.236 19.5684 166.506 19.5684C166.676 19.5684 166.812 19.5306 166.912 19.4551C167.012 19.3796 167.062 19.2721 167.062 19.1328C167.062 18.9896 167.003 18.8802 166.883 18.8047C166.764 18.7292 166.598 18.6914 166.383 18.6914H166.113V18.2051H166.361C166.768 18.2051 166.971 18.0684 166.971 17.7949C166.971 17.5371 166.815 17.4082 166.504 17.4082C166.301 17.4082 166.104 17.4746 165.912 17.6074V17.0859C166.12 16.9779 166.366 16.9238 166.648 16.9238C166.935 16.9238 167.167 16.9902 167.346 17.123C167.524 17.2546 167.613 17.4375 167.613 17.6719C167.613 18.0677 167.413 18.3164 167.012 18.418V18.4277C167.223 18.4512 167.391 18.5286 167.518 18.6602C167.644 18.7904 167.707 18.9492 167.707 19.1367C167.707 19.4245 167.602 19.6491 167.391 19.8105C167.181 19.972 166.901 20.0527 166.551 20.0527C166.24 20.0527 165.989 20.0013 165.799 19.8984V19.3418ZM168.299 19.4121C168.46 19.5163 168.65 19.5684 168.869 19.5684C169.357 19.5684 169.607 19.2507 169.617 18.6152L169.605 18.6113C169.473 18.8158 169.268 18.918 168.99 18.918C168.739 18.918 168.532 18.8301 168.369 18.6543C168.208 18.4772 168.127 18.2546 168.127 17.9863C168.127 17.6712 168.225 17.4154 168.42 17.2188C168.615 17.0221 168.87 16.9238 169.184 16.9238C169.51 16.9238 169.767 17.0482 169.953 17.2969C170.139 17.5456 170.232 17.8926 170.232 18.3379C170.232 18.8665 170.12 19.2845 169.895 19.5918C169.671 19.8991 169.348 20.0527 168.926 20.0527C168.688 20.0527 168.479 20.0143 168.299 19.9375V19.4121ZM168.746 17.9297C168.746 18.0898 168.785 18.2155 168.861 18.3066C168.939 18.3978 169.046 18.4434 169.18 18.4434C169.299 18.4434 169.398 18.3997 169.475 18.3125C169.553 18.2253 169.592 18.1172 169.592 17.9883C169.592 17.8333 169.553 17.6979 169.475 17.582C169.398 17.4661 169.294 17.4082 169.164 17.4082C169.038 17.4082 168.936 17.4583 168.859 17.5586C168.784 17.6589 168.746 17.7826 168.746 17.9297ZM170.623 19.7168C170.623 19.6191 170.66 19.5391 170.734 19.4766C170.809 19.4141 170.897 19.3828 171 19.3828C171.104 19.3828 171.192 19.4147 171.264 19.4785C171.335 19.5423 171.371 19.6217 171.371 19.7168C171.371 19.8171 171.335 19.8984 171.264 19.9609C171.192 20.0221 171.102 20.0527 170.992 20.0527C170.891 20.0527 170.803 20.0208 170.73 19.957C170.659 19.8932 170.623 19.8132 170.623 19.7168ZM172.51 19.4746H173.793V20H171.781V19.7754C171.781 19.6178 171.81 19.474 171.867 19.3438C171.926 19.2135 172.006 19.0924 172.107 18.9805C172.209 18.8672 172.367 18.735 172.58 18.584C172.775 18.4382 172.912 18.3092 172.99 18.1973C173.068 18.084 173.107 17.9642 173.107 17.8379C173.107 17.5658 172.959 17.4297 172.662 17.4297C172.402 17.4297 172.153 17.5339 171.916 17.7422V17.1797C172.18 17.0091 172.477 16.9238 172.807 16.9238C173.109 16.9238 173.348 17.0013 173.523 17.1562C173.699 17.3099 173.787 17.5221 173.787 17.793C173.787 17.944 173.762 18.0807 173.711 18.2031C173.66 18.3242 173.587 18.4382 173.49 18.5449C173.394 18.6517 173.24 18.7799 173.027 18.9297C172.823 19.0755 172.686 19.1882 172.615 19.2676C172.545 19.347 172.51 19.416 172.51 19.4746ZM174.979 19.4746H176.262V20H174.25V19.7754C174.25 19.6178 174.279 19.474 174.336 19.3438C174.395 19.2135 174.475 19.0924 174.576 18.9805C174.678 18.8672 174.835 18.735 175.049 18.584C175.244 18.4382 175.381 18.3092 175.459 18.1973C175.537 18.084 175.576 17.9642 175.576 17.8379C175.576 17.5658 175.428 17.4297 175.131 17.4297C174.87 17.4297 174.622 17.5339 174.385 17.7422V17.1797C174.649 17.0091 174.946 16.9238 175.275 16.9238C175.577 16.9238 175.816 17.0013 175.992 17.1562C176.168 17.3099 176.256 17.5221 176.256 17.793C176.256 17.944 176.23 18.0807 176.18 18.2031C176.129 18.3242 176.055 18.4382 175.959 18.5449C175.863 18.6517 175.708 18.7799 175.496 18.9297C175.292 19.0755 175.154 19.1882 175.084 19.2676C175.014 19.347 174.979 19.416 174.979 19.4746Z" fill="#ED844B"/>
</svg>
