<svg width="255" height="84" viewBox="0 0 255 84" fill="none" xmlns="http://www.w3.org/2000/svg">
<path d="M28.7656 83V80.4121C28.7057 80.472 28.6042 80.5391 28.4609 80.6133C28.319 80.6875 28.1875 80.7396 28.0664 80.7695V80.3945C28.2266 80.3503 28.3978 80.2799 28.5801 80.1836C28.7624 80.0859 28.9023 79.9941 29 79.9082H29.1445V83H28.7656ZM30.1758 81.5469C30.1758 81.013 30.2643 80.6094 30.4414 80.3359C30.6185 80.0612 30.875 79.9238 31.2109 79.9238C31.8516 79.9238 32.1719 80.4408 32.1719 81.4746C32.1719 81.985 32.0814 82.3757 31.9004 82.6465C31.7207 82.916 31.4681 83.0508 31.1426 83.0508C30.8353 83.0508 30.597 82.9225 30.4277 82.666C30.2598 82.4095 30.1758 82.0365 30.1758 81.5469ZM30.5664 81.5293C30.5664 82.3327 30.7702 82.7344 31.1777 82.7344C31.5788 82.7344 31.7793 82.3262 31.7793 81.5098C31.7793 80.6647 31.5827 80.2422 31.1895 80.2422C30.7741 80.2422 30.5664 80.6712 30.5664 81.5293Z" fill="white"/>
<path d="M52.8739 80.7676C52.8739 80.6048 52.8225 80.4772 52.7196 80.3848C52.6167 80.291 52.4768 80.2441 52.2997 80.2441C52.1747 80.2441 52.0484 80.276 51.9208 80.3398C51.7932 80.4036 51.674 80.4948 51.5634 80.6133V80.2422C51.6623 80.1393 51.7743 80.0605 51.8993 80.0059C52.0256 79.9512 52.1734 79.9238 52.3427 79.9238C52.6161 79.9238 52.8361 79.9974 53.0028 80.1445C53.1695 80.2904 53.2528 80.4883 53.2528 80.7383C53.2528 80.9609 53.2014 81.1536 53.0985 81.3164C52.9969 81.4792 52.8225 81.6458 52.5751 81.8164C52.3225 81.9909 52.1532 82.1159 52.0673 82.1914C51.9826 82.2669 51.9234 82.3392 51.8895 82.4082C51.8557 82.4772 51.8387 82.5612 51.8387 82.6602H53.3427V83H51.4403V82.8496C51.4403 82.6751 51.4637 82.5273 51.5106 82.4062C51.5588 82.2839 51.6376 82.1654 51.7469 82.0508C51.8563 81.9349 52.0269 81.7962 52.2587 81.6348C52.4956 81.4681 52.6571 81.3223 52.743 81.1973C52.8303 81.071 52.8739 80.9277 52.8739 80.7676ZM53.7313 81.5469C53.7313 81.013 53.8199 80.6094 53.9969 80.3359C54.174 80.0612 54.4305 79.9238 54.7665 79.9238C55.4071 79.9238 55.7274 80.4408 55.7274 81.4746C55.7274 81.985 55.6369 82.3757 55.4559 82.6465C55.2762 82.916 55.0236 83.0508 54.6981 83.0508C54.3908 83.0508 54.1525 82.9225 53.9833 82.666C53.8153 82.4095 53.7313 82.0365 53.7313 81.5469ZM54.1219 81.5293C54.1219 82.3327 54.3257 82.7344 54.7333 82.7344C55.1343 82.7344 55.3348 82.3262 55.3348 81.5098C55.3348 80.6647 55.1382 80.2422 54.745 80.2422C54.3296 80.2422 54.1219 80.6712 54.1219 81.5293Z" fill="white"/>
<path d="M75.0427 82.4941C75.2498 82.6543 75.4835 82.7344 75.7439 82.7344C75.9522 82.7344 76.1169 82.6836 76.238 82.582C76.3604 82.4792 76.4216 82.3418 76.4216 82.1699C76.4216 81.7871 76.1475 81.5957 75.5994 81.5957H75.3474V81.2793H75.5876C76.0733 81.2793 76.3162 81.0996 76.3162 80.7402C76.3162 80.4082 76.1306 80.2422 75.7595 80.2422C75.5473 80.2422 75.3474 80.3138 75.1599 80.457V80.0957C75.3578 79.9811 75.5889 79.9238 75.8533 79.9238C76.1111 79.9238 76.3181 79.9915 76.4744 80.127C76.6306 80.2611 76.7087 80.4355 76.7087 80.6504C76.7087 81.0462 76.5069 81.3008 76.1033 81.4141V81.4219C76.322 81.4453 76.4945 81.5228 76.6208 81.6543C76.7485 81.7845 76.8123 81.9473 76.8123 82.1426C76.8123 82.4147 76.7139 82.6341 76.5173 82.8008C76.322 82.9674 76.0616 83.0508 75.7361 83.0508C75.4496 83.0508 75.2185 82.9974 75.0427 82.8906V82.4941ZM77.2869 81.5469C77.2869 81.013 77.3754 80.6094 77.5525 80.3359C77.7296 80.0612 77.9861 79.9238 78.322 79.9238C78.9626 79.9238 79.283 80.4408 79.283 81.4746C79.283 81.985 79.1925 82.3757 79.0115 82.6465C78.8318 82.916 78.5792 83.0508 78.2537 83.0508C77.9464 83.0508 77.7081 82.9225 77.5388 82.666C77.3708 82.4095 77.2869 82.0365 77.2869 81.5469ZM77.6775 81.5293C77.6775 82.3327 77.8813 82.7344 78.2888 82.7344C78.6899 82.7344 78.8904 82.3262 78.8904 81.5098C78.8904 80.6647 78.6938 80.2422 78.3005 80.2422C77.8852 80.2422 77.6775 80.6712 77.6775 81.5293Z" fill="white"/>
<path d="M100.135 79.9746V81.9727H100.589V82.2891H100.135V83H99.7643V82.2891H98.3522V81.9902C98.6035 81.7077 98.8561 81.3822 99.11 81.0137C99.3639 80.6452 99.5735 80.2988 99.7389 79.9746H100.135ZM98.7819 81.9727H99.7643V80.5312C99.6289 80.7747 99.4837 81.0111 99.3287 81.2402C99.1738 81.4681 98.9915 81.7122 98.7819 81.9727ZM100.842 81.5469C100.842 81.013 100.931 80.6094 101.108 80.3359C101.285 80.0612 101.542 79.9238 101.878 79.9238C102.518 79.9238 102.839 80.4408 102.839 81.4746C102.839 81.985 102.748 82.3757 102.567 82.6465C102.387 82.916 102.135 83.0508 101.809 83.0508C101.502 83.0508 101.264 82.9225 101.094 82.666C100.926 82.4095 100.842 82.0365 100.842 81.5469ZM101.233 81.5293C101.233 82.3327 101.437 82.7344 101.844 82.7344C102.245 82.7344 102.446 82.3262 102.446 81.5098C102.446 80.6647 102.249 80.2422 101.856 80.2422C101.441 80.2422 101.233 80.6712 101.233 81.5293Z" fill="white"/>
<path d="M123.933 82.0664C123.933 82.362 123.835 82.6003 123.638 82.7812C123.443 82.9622 123.18 83.0527 122.849 83.0527C122.565 83.0527 122.354 83.0104 122.214 82.9258V82.5352C122.419 82.668 122.627 82.7344 122.839 82.7344C123.05 82.7344 123.22 82.6764 123.349 82.5605C123.479 82.4434 123.544 82.2884 123.544 82.0957C123.544 81.903 123.477 81.7533 123.341 81.6465C123.207 81.5384 123.017 81.4844 122.771 81.4844C122.581 81.4844 122.41 81.4928 122.257 81.5098L122.369 79.9746H123.783V80.3105H122.691L122.628 81.168L122.904 81.1562C123.224 81.1562 123.475 81.2363 123.658 81.3965C123.841 81.5553 123.933 81.7786 123.933 82.0664ZM124.398 81.5469C124.398 81.013 124.486 80.6094 124.664 80.3359C124.841 80.0612 125.097 79.9238 125.433 79.9238C126.074 79.9238 126.394 80.4408 126.394 81.4746C126.394 81.985 126.304 82.3757 126.123 82.6465C125.943 82.916 125.69 83.0508 125.365 83.0508C125.057 83.0508 124.819 82.9225 124.65 82.666C124.482 82.4095 124.398 82.0365 124.398 81.5469ZM124.789 81.5293C124.789 82.3327 124.992 82.7344 125.4 82.7344C125.801 82.7344 126.001 82.3262 126.001 81.5098C126.001 80.6647 125.805 80.2422 125.412 80.2422C124.996 80.2422 124.789 80.6712 124.789 81.5293Z" fill="white"/>
<path d="M147.418 80.3633C147.261 80.2826 147.096 80.2422 146.924 80.2422C146.663 80.2422 146.452 80.3561 146.293 80.584C146.135 80.8118 146.054 81.123 146.051 81.5176H146.061C146.204 81.2402 146.433 81.1016 146.747 81.1016C147.008 81.1016 147.217 81.1868 147.374 81.3574C147.53 81.528 147.608 81.7546 147.608 82.0371C147.608 82.3327 147.517 82.5755 147.336 82.7656C147.157 82.9557 146.927 83.0508 146.647 83.0508C146.34 83.0508 146.098 82.931 145.922 82.6914C145.748 82.4505 145.661 82.1094 145.661 81.668C145.661 81.1341 145.775 80.7103 146.004 80.3965C146.235 80.0814 146.538 79.9238 146.913 79.9238C147.127 79.9238 147.296 79.9531 147.418 80.0117V80.3633ZM146.075 82.0098C146.075 82.209 146.127 82.3796 146.233 82.5215C146.34 82.6634 146.481 82.7344 146.657 82.7344C146.823 82.7344 146.959 82.6732 147.063 82.5508C147.167 82.4284 147.219 82.2708 147.219 82.0781C147.219 81.8698 147.17 81.7077 147.071 81.5918C146.973 81.4759 146.834 81.418 146.653 81.418C146.481 81.418 146.342 81.4766 146.235 81.5938C146.128 81.7109 146.075 81.8496 146.075 82.0098ZM147.954 81.5469C147.954 81.013 148.042 80.6094 148.219 80.3359C148.396 80.0612 148.653 79.9238 148.989 79.9238C149.629 79.9238 149.95 80.4408 149.95 81.4746C149.95 81.985 149.859 82.3757 149.678 82.6465C149.499 82.916 149.246 83.0508 148.92 83.0508C148.613 83.0508 148.375 82.9225 148.206 82.666C148.038 82.4095 147.954 82.0365 147.954 81.5469ZM148.344 81.5293C148.344 82.3327 148.548 82.7344 148.956 82.7344C149.357 82.7344 149.557 82.3262 149.557 81.5098C149.557 80.6647 149.361 80.2422 148.967 80.2422C148.552 80.2422 148.344 80.6712 148.344 81.5293Z" fill="white"/>
<path d="M171.124 80.2109C170.807 80.7656 170.557 81.2793 170.374 81.752C170.193 82.2233 170.081 82.6393 170.038 83H169.64C169.688 82.6445 169.802 82.2389 169.982 81.7832C170.161 81.3275 170.402 80.8372 170.703 80.3125H169.203V79.9746H171.124V80.2109ZM171.509 81.5469C171.509 81.013 171.598 80.6094 171.775 80.3359C171.952 80.0612 172.208 79.9238 172.544 79.9238C173.185 79.9238 173.505 80.4408 173.505 81.4746C173.505 81.985 173.415 82.3757 173.234 82.6465C173.054 82.916 172.801 83.0508 172.476 83.0508C172.169 83.0508 171.93 82.9225 171.761 82.666C171.593 82.4095 171.509 82.0365 171.509 81.5469ZM171.9 81.5293C171.9 82.3327 172.104 82.7344 172.511 82.7344C172.912 82.7344 173.113 82.3262 173.113 81.5098C173.113 80.6647 172.916 80.2422 172.523 80.2422C172.107 80.2422 171.9 80.6712 171.9 81.5293Z" fill="white"/>
<path d="M192.733 82.1562C192.733 81.9818 192.785 81.821 192.889 81.6738C192.993 81.5267 193.127 81.4219 193.291 81.3594C193.16 81.2852 193.056 81.1901 192.979 81.0742C192.902 80.9583 192.864 80.8327 192.864 80.6973C192.864 80.554 192.9 80.4232 192.973 80.3047C193.047 80.1862 193.149 80.0931 193.28 80.0254C193.411 79.9577 193.556 79.9238 193.713 79.9238C193.872 79.9238 194.017 79.9577 194.149 80.0254C194.28 80.0918 194.382 80.1842 194.455 80.3027C194.528 80.4212 194.565 80.5527 194.565 80.6973C194.565 80.8301 194.527 80.9551 194.451 81.0723C194.377 81.1882 194.274 81.2839 194.141 81.3594C194.305 81.4232 194.438 81.5286 194.541 81.6758C194.644 81.8229 194.696 81.9831 194.696 82.1562C194.696 82.3281 194.655 82.4824 194.573 82.6191C194.49 82.7546 194.374 82.86 194.223 82.9355C194.072 83.0111 193.902 83.0488 193.713 83.0488C193.526 83.0488 193.357 83.0111 193.207 82.9355C193.058 82.86 192.941 82.7539 192.858 82.6172C192.774 82.4805 192.733 82.3268 192.733 82.1562ZM193.108 82.1387C193.108 82.3184 193.163 82.4622 193.274 82.5703C193.384 82.6784 193.531 82.7324 193.715 82.7324C193.895 82.7324 194.041 82.6777 194.155 82.5684C194.269 82.4577 194.326 82.3145 194.326 82.1387C194.326 81.972 194.268 81.832 194.153 81.7188C194.038 81.6042 193.892 81.5469 193.715 81.5469C193.539 81.5469 193.394 81.6029 193.28 81.7148C193.165 81.8255 193.108 81.9668 193.108 82.1387ZM193.217 80.7285C193.217 80.8639 193.265 80.9805 193.362 81.0781C193.458 81.1745 193.576 81.2227 193.715 81.2227C193.852 81.2227 193.97 81.1738 194.069 81.0762C194.169 80.9785 194.219 80.8626 194.219 80.7285C194.219 80.5918 194.171 80.4759 194.074 80.3809C193.979 80.2858 193.86 80.2383 193.715 80.2383C193.572 80.2383 193.453 80.2852 193.358 80.3789C193.264 80.4714 193.217 80.5879 193.217 80.7285ZM195.065 81.5469C195.065 81.013 195.153 80.6094 195.33 80.3359C195.507 80.0612 195.764 79.9238 196.1 79.9238C196.74 79.9238 197.061 80.4408 197.061 81.4746C197.061 81.985 196.97 82.3757 196.789 82.6465C196.61 82.916 196.357 83.0508 196.031 83.0508C195.724 83.0508 195.486 82.9225 195.317 82.666C195.149 82.4095 195.065 82.0365 195.065 81.5469ZM195.455 81.5293C195.455 82.3327 195.659 82.7344 196.067 82.7344C196.468 82.7344 196.668 82.3262 196.668 81.5098C196.668 80.6647 196.472 80.2422 196.078 80.2422C195.663 80.2422 195.455 80.6712 195.455 81.5293Z" fill="white"/>
<path d="M216.458 82.5898C216.625 82.6862 216.804 82.7344 216.997 82.7344C217.268 82.7344 217.478 82.6276 217.626 82.4141C217.776 82.2005 217.851 81.8971 217.851 81.5039L217.847 81.5059L217.843 81.5039C217.71 81.7565 217.487 81.8828 217.173 81.8828C216.919 81.8828 216.709 81.7956 216.542 81.6211C216.375 81.4466 216.292 81.2201 216.292 80.9414C216.292 80.6445 216.383 80.401 216.566 80.2109C216.748 80.0195 216.984 79.9238 217.275 79.9238C217.575 79.9238 217.81 80.0423 217.98 80.2793C218.149 80.515 218.234 80.8587 218.234 81.3105C218.234 81.8691 218.124 82.2988 217.905 82.5996C217.687 82.9004 217.384 83.0508 216.997 83.0508C216.785 83.0508 216.605 83.0163 216.458 82.9473V82.5898ZM216.679 80.8926C216.679 81.0957 216.731 81.2572 216.835 81.377C216.939 81.4954 217.083 81.5547 217.267 81.5547C217.426 81.5547 217.559 81.5007 217.667 81.3926C217.775 81.2832 217.829 81.151 217.829 80.9961C217.829 80.7786 217.775 80.599 217.667 80.457C217.56 80.3138 217.419 80.2422 217.243 80.2422C217.081 80.2422 216.946 80.304 216.839 80.4277C216.732 80.5514 216.679 80.7064 216.679 80.8926ZM218.62 81.5469C218.62 81.013 218.709 80.6094 218.886 80.3359C219.063 80.0612 219.319 79.9238 219.655 79.9238C220.296 79.9238 220.616 80.4408 220.616 81.4746C220.616 81.985 220.526 82.3757 220.345 82.6465C220.165 82.916 219.913 83.0508 219.587 83.0508C219.28 83.0508 219.041 82.9225 218.872 82.666C218.704 82.4095 218.62 82.0365 218.62 81.5469ZM219.011 81.5293C219.011 82.3327 219.215 82.7344 219.622 82.7344C220.023 82.7344 220.224 82.3262 220.224 81.5098C220.224 80.6647 220.027 80.2422 219.634 80.2422C219.219 80.2422 219.011 80.6712 219.011 81.5293Z" fill="white"/>
<path d="M239.592 83V80.4121C239.532 80.472 239.43 80.5391 239.287 80.6133C239.145 80.6875 239.014 80.7396 238.893 80.7695V80.3945C239.053 80.3503 239.224 80.2799 239.406 80.1836C239.589 80.0859 239.729 79.9941 239.826 79.9082H239.971V83H239.592ZM241.002 81.5469C241.002 81.013 241.09 80.6094 241.268 80.3359C241.445 80.0612 241.701 79.9238 242.037 79.9238C242.678 79.9238 242.998 80.4408 242.998 81.4746C242.998 81.985 242.908 82.3757 242.727 82.6465C242.547 82.916 242.294 83.0508 241.969 83.0508C241.661 83.0508 241.423 82.9225 241.254 82.666C241.086 82.4095 241.002 82.0365 241.002 81.5469ZM241.393 81.5293C241.393 82.3327 241.596 82.7344 242.004 82.7344C242.405 82.7344 242.605 82.3262 242.605 81.5098C242.605 80.6647 242.409 80.2422 242.016 80.2422C241.6 80.2422 241.393 80.6712 241.393 81.5293ZM243.35 81.5469C243.35 81.013 243.438 80.6094 243.615 80.3359C243.792 80.0612 244.049 79.9238 244.385 79.9238C245.025 79.9238 245.346 80.4408 245.346 81.4746C245.346 81.985 245.255 82.3757 245.074 82.6465C244.895 82.916 244.642 83.0508 244.316 83.0508C244.009 83.0508 243.771 82.9225 243.602 82.666C243.434 82.4095 243.35 82.0365 243.35 81.5469ZM243.74 81.5293C243.74 82.3327 243.944 82.7344 244.352 82.7344C244.753 82.7344 244.953 82.3262 244.953 81.5098C244.953 80.6647 244.757 80.2422 244.363 80.2422C243.948 80.2422 243.74 80.6712 243.74 81.5293Z" fill="white"/>
<path d="M12 3L254 3" stroke="white" stroke-opacity="0.5" stroke-linecap="round" stroke-dasharray="2 2"/>
<path d="M12 15L254 15" stroke="white" stroke-opacity="0.5" stroke-linecap="round" stroke-dasharray="2 2"/>
<path d="M12 27L254 27" stroke="white" stroke-opacity="0.5" stroke-linecap="round" stroke-dasharray="2 2"/>
<path d="M12 39L254 39" stroke="white" stroke-opacity="0.5" stroke-linecap="round" stroke-dasharray="2 2"/>
<path d="M12 51L254 51" stroke="white" stroke-opacity="0.5" stroke-linecap="round" stroke-dasharray="2 2"/>
<path d="M12 63L254 63" stroke="white" stroke-opacity="0.5" stroke-linecap="round" stroke-dasharray="2 2"/>
<path d="M12 75L254 75" stroke="white" stroke-linecap="round"/>
<path d="M2.64062 2.36328C2.48307 2.28255 2.31836 2.24219 2.14648 2.24219C1.88477 2.24219 1.67448 2.35612 1.51562 2.58398C1.35677 2.81185 1.27604 3.12305 1.27344 3.51758H1.2832C1.42643 3.24023 1.65495 3.10156 1.96875 3.10156C2.23047 3.10156 2.43945 3.18685 2.5957 3.35742C2.75195 3.52799 2.83008 3.75456 2.83008 4.03711C2.83008 4.33268 2.73958 4.57552 2.55859 4.76562C2.37891 4.95573 2.14909 5.05078 1.86914 5.05078C1.56185 5.05078 1.32031 4.93099 1.14453 4.69141C0.970052 4.45052 0.882812 4.10938 0.882812 3.66797C0.882812 3.13411 0.997396 2.71029 1.22656 2.39648C1.45703 2.08138 1.75977 1.92383 2.13477 1.92383C2.34961 1.92383 2.51823 1.95312 2.64062 2.01172V2.36328ZM1.29688 4.00977C1.29688 4.20898 1.34961 4.37956 1.45508 4.52148C1.56185 4.66341 1.70312 4.73438 1.87891 4.73438C2.04557 4.73438 2.18099 4.67318 2.28516 4.55078C2.38932 4.42839 2.44141 4.27083 2.44141 4.07812C2.44141 3.86979 2.39193 3.70768 2.29297 3.5918C2.19531 3.47591 2.05599 3.41797 1.875 3.41797C1.70312 3.41797 1.5638 3.47656 1.45703 3.59375C1.35026 3.71094 1.29688 3.84961 1.29688 4.00977ZM3.2793 4.49414C3.48633 4.6543 3.72005 4.73438 3.98047 4.73438C4.1888 4.73438 4.35352 4.68359 4.47461 4.58203C4.59701 4.47917 4.6582 4.3418 4.6582 4.16992C4.6582 3.78711 4.38411 3.5957 3.83594 3.5957H3.58398V3.2793H3.82422C4.3099 3.2793 4.55273 3.09961 4.55273 2.74023C4.55273 2.4082 4.36719 2.24219 3.99609 2.24219C3.78385 2.24219 3.58398 2.3138 3.39648 2.45703V2.0957C3.5944 1.98112 3.82552 1.92383 4.08984 1.92383C4.34766 1.92383 4.55469 1.99154 4.71094 2.12695C4.86719 2.26107 4.94531 2.43555 4.94531 2.65039C4.94531 3.04622 4.74349 3.30078 4.33984 3.41406V3.42188C4.55859 3.44531 4.73112 3.52279 4.85742 3.6543C4.98503 3.78451 5.04883 3.94727 5.04883 4.14258C5.04883 4.41471 4.95052 4.63411 4.75391 4.80078C4.55859 4.96745 4.29818 5.05078 3.97266 5.05078C3.6862 5.05078 3.45508 4.9974 3.2793 4.89062V4.49414Z" fill="white"/>
<path d="M2.46875 13.9746V15.9727H2.92188V16.2891H2.46875V17H2.09766V16.2891H0.685547V15.9902C0.936849 15.7077 1.18945 15.3822 1.44336 15.0137C1.69727 14.6452 1.9069 14.2988 2.07227 13.9746H2.46875ZM1.11523 15.9727H2.09766V14.5312C1.96224 14.7747 1.81706 15.0111 1.66211 15.2402C1.50716 15.4681 1.32487 15.7122 1.11523 15.9727ZM4.11328 17V14.4121C4.05339 14.472 3.95182 14.5391 3.80859 14.6133C3.66667 14.6875 3.53516 14.7396 3.41406 14.7695V14.3945C3.57422 14.3503 3.74544 14.2799 3.92773 14.1836C4.11003 14.0859 4.25 13.9941 4.34766 13.9082H4.49219V17H4.11328Z" fill="white"/>
<path d="M0.931641 28.4941C1.13867 28.6543 1.3724 28.7344 1.63281 28.7344C1.84115 28.7344 2.00586 28.6836 2.12695 28.582C2.24935 28.4792 2.31055 28.3418 2.31055 28.1699C2.31055 27.7871 2.03646 27.5957 1.48828 27.5957H1.23633V27.2793H1.47656C1.96224 27.2793 2.20508 27.0996 2.20508 26.7402C2.20508 26.4082 2.01953 26.2422 1.64844 26.2422C1.4362 26.2422 1.23633 26.3138 1.04883 26.457V26.0957C1.24674 25.9811 1.47786 25.9238 1.74219 25.9238C2 25.9238 2.20703 25.9915 2.36328 26.127C2.51953 26.2611 2.59766 26.4355 2.59766 26.6504C2.59766 27.0462 2.39583 27.3008 1.99219 27.4141V27.4219C2.21094 27.4453 2.38346 27.5228 2.50977 27.6543C2.63737 27.7845 2.70117 27.9473 2.70117 28.1426C2.70117 28.4147 2.60286 28.6341 2.40625 28.8008C2.21094 28.9674 1.95052 29.0508 1.625 29.0508C1.33854 29.0508 1.10742 28.9974 0.931641 28.8906V28.4941ZM3.19141 28.1562C3.19141 27.9818 3.24349 27.821 3.34766 27.6738C3.45182 27.5267 3.58594 27.4219 3.75 27.3594C3.61849 27.2852 3.51432 27.1901 3.4375 27.0742C3.36068 26.9583 3.32227 26.8327 3.32227 26.6973C3.32227 26.554 3.35872 26.4232 3.43164 26.3047C3.50586 26.1862 3.60807 26.0931 3.73828 26.0254C3.86979 25.9577 4.01432 25.9238 4.17188 25.9238C4.33073 25.9238 4.47591 25.9577 4.60742 26.0254C4.73893 26.0918 4.84115 26.1842 4.91406 26.3027C4.98698 26.4212 5.02344 26.5527 5.02344 26.6973C5.02344 26.8301 4.98568 26.9551 4.91016 27.0723C4.83594 27.1882 4.73242 27.2839 4.59961 27.3594C4.76367 27.4232 4.89714 27.5286 5 27.6758C5.10286 27.8229 5.1543 27.9831 5.1543 28.1562C5.1543 28.3281 5.11328 28.4824 5.03125 28.6191C4.94922 28.7546 4.83268 28.86 4.68164 28.9355C4.5306 29.0111 4.36068 29.0488 4.17188 29.0488C3.98438 29.0488 3.81576 29.0111 3.66602 28.9355C3.51628 28.86 3.39974 28.7539 3.31641 28.6172C3.23307 28.4805 3.19141 28.3268 3.19141 28.1562ZM3.56641 28.1387C3.56641 28.3184 3.62174 28.4622 3.73242 28.5703C3.8431 28.6784 3.99023 28.7324 4.17383 28.7324C4.35352 28.7324 4.5 28.6777 4.61328 28.5684C4.72786 28.4577 4.78516 28.3145 4.78516 28.1387C4.78516 27.972 4.72721 27.832 4.61133 27.7188C4.49674 27.6042 4.35091 27.5469 4.17383 27.5469C3.99805 27.5469 3.85286 27.6029 3.73828 27.7148C3.6237 27.8255 3.56641 27.9668 3.56641 28.1387ZM3.67578 26.7285C3.67578 26.8639 3.72396 26.9805 3.82031 27.0781C3.91667 27.1745 4.03451 27.2227 4.17383 27.2227C4.31055 27.2227 4.42839 27.1738 4.52734 27.0762C4.6276 26.9785 4.67773 26.8626 4.67773 26.7285C4.67773 26.5918 4.62956 26.4759 4.5332 26.3809C4.43815 26.2858 4.31836 26.2383 4.17383 26.2383C4.0306 26.2383 3.91146 26.2852 3.81641 26.3789C3.72266 26.4714 3.67578 26.5879 3.67578 26.7285Z" fill="white"/>
<path d="M0.931641 40.4941C1.13867 40.6543 1.3724 40.7344 1.63281 40.7344C1.84115 40.7344 2.00586 40.6836 2.12695 40.582C2.24935 40.4792 2.31055 40.3418 2.31055 40.1699C2.31055 39.7871 2.03646 39.5957 1.48828 39.5957H1.23633V39.2793H1.47656C1.96224 39.2793 2.20508 39.0996 2.20508 38.7402C2.20508 38.4082 2.01953 38.2422 1.64844 38.2422C1.4362 38.2422 1.23633 38.3138 1.04883 38.457V38.0957C1.24674 37.9811 1.47786 37.9238 1.74219 37.9238C2 37.9238 2.20703 37.9915 2.36328 38.127C2.51953 38.2611 2.59766 38.4355 2.59766 38.6504C2.59766 39.0462 2.39583 39.3008 1.99219 39.4141V39.4219C2.21094 39.4453 2.38346 39.5228 2.50977 39.6543C2.63737 39.7845 2.70117 39.9473 2.70117 40.1426C2.70117 40.4147 2.60286 40.6341 2.40625 40.8008C2.21094 40.9674 1.95052 41.0508 1.625 41.0508C1.33854 41.0508 1.10742 40.9974 0.931641 40.8906V40.4941ZM5.05859 40.0664C5.05859 40.362 4.96029 40.6003 4.76367 40.7812C4.56836 40.9622 4.30534 41.0527 3.97461 41.0527C3.69076 41.0527 3.47917 41.0104 3.33984 40.9258V40.5352C3.54427 40.668 3.7526 40.7344 3.96484 40.7344C4.17578 40.7344 4.3457 40.6764 4.47461 40.5605C4.60482 40.4434 4.66992 40.2884 4.66992 40.0957C4.66992 39.903 4.60221 39.7533 4.4668 39.6465C4.33268 39.5384 4.14258 39.4844 3.89648 39.4844C3.70638 39.4844 3.53516 39.4928 3.38281 39.5098L3.49414 37.9746H4.9082V38.3105H3.81641L3.75391 39.168L4.0293 39.1562C4.34961 39.1562 4.60091 39.2363 4.7832 39.3965C4.9668 39.5553 5.05859 39.7786 5.05859 40.0664Z" fill="white"/>
<path d="M0.931641 52.4941C1.13867 52.6543 1.3724 52.7344 1.63281 52.7344C1.84115 52.7344 2.00586 52.6836 2.12695 52.582C2.24935 52.4792 2.31055 52.3418 2.31055 52.1699C2.31055 51.7871 2.03646 51.5957 1.48828 51.5957H1.23633V51.2793H1.47656C1.96224 51.2793 2.20508 51.0996 2.20508 50.7402C2.20508 50.4082 2.01953 50.2422 1.64844 50.2422C1.4362 50.2422 1.23633 50.3138 1.04883 50.457V50.0957C1.24674 49.9811 1.47786 49.9238 1.74219 49.9238C2 49.9238 2.20703 49.9915 2.36328 50.127C2.51953 50.2611 2.59766 50.4355 2.59766 50.6504C2.59766 51.0462 2.39583 51.3008 1.99219 51.4141V51.4219C2.21094 51.4453 2.38346 51.5228 2.50977 51.6543C2.63737 51.7845 2.70117 51.9473 2.70117 52.1426C2.70117 52.4147 2.60286 52.6341 2.40625 52.8008C2.21094 52.9674 1.95052 53.0508 1.625 53.0508C1.33854 53.0508 1.10742 52.9974 0.931641 52.8906V52.4941ZM4.66602 50.7676C4.66602 50.6048 4.61458 50.4772 4.51172 50.3848C4.40885 50.291 4.26888 50.2441 4.0918 50.2441C3.9668 50.2441 3.84049 50.276 3.71289 50.3398C3.58529 50.4036 3.46615 50.4948 3.35547 50.6133V50.2422C3.45443 50.1393 3.56641 50.0605 3.69141 50.0059C3.81771 49.9512 3.96549 49.9238 4.13477 49.9238C4.4082 49.9238 4.62826 49.9974 4.79492 50.1445C4.96159 50.2904 5.04492 50.4883 5.04492 50.7383C5.04492 50.9609 4.99349 51.1536 4.89062 51.3164C4.78906 51.4792 4.61458 51.6458 4.36719 51.8164C4.11458 51.9909 3.94531 52.1159 3.85938 52.1914C3.77474 52.2669 3.71549 52.3392 3.68164 52.4082C3.64779 52.4772 3.63086 52.5612 3.63086 52.6602H5.13477V53H3.23242V52.8496C3.23242 52.6751 3.25586 52.5273 3.30273 52.4062C3.35091 52.2839 3.42969 52.1654 3.53906 52.0508C3.64844 51.9349 3.81901 51.7962 4.05078 51.6348C4.28776 51.4681 4.44922 51.3223 4.53516 51.1973C4.6224 51.071 4.66602 50.9277 4.66602 50.7676Z" fill="white"/>
<path d="M2.31836 62.7676C2.31836 62.6048 2.26693 62.4772 2.16406 62.3848C2.0612 62.291 1.92122 62.2441 1.74414 62.2441C1.61914 62.2441 1.49284 62.276 1.36523 62.3398C1.23763 62.4036 1.11849 62.4948 1.00781 62.6133V62.2422C1.10677 62.1393 1.21875 62.0605 1.34375 62.0059C1.47005 61.9512 1.61784 61.9238 1.78711 61.9238C2.06055 61.9238 2.2806 61.9974 2.44727 62.1445C2.61393 62.2904 2.69727 62.4883 2.69727 62.7383C2.69727 62.9609 2.64583 63.1536 2.54297 63.3164C2.44141 63.4792 2.26693 63.6458 2.01953 63.8164C1.76693 63.9909 1.59766 64.1159 1.51172 64.1914C1.42708 64.2669 1.36784 64.3392 1.33398 64.4082C1.30013 64.4772 1.2832 64.5612 1.2832 64.6602H2.78711V65H0.884766V64.8496C0.884766 64.6751 0.908203 64.5273 0.955078 64.4062C1.00326 64.2839 1.08203 64.1654 1.19141 64.0508C1.30078 63.9349 1.47135 63.7962 1.70312 63.6348C1.9401 63.4681 2.10156 63.3223 2.1875 63.1973C2.27474 63.071 2.31836 62.9277 2.31836 62.7676ZM3.36133 64.5898C3.52799 64.6862 3.70768 64.7344 3.90039 64.7344C4.17122 64.7344 4.38086 64.6276 4.5293 64.4141C4.67904 64.2005 4.75391 63.8971 4.75391 63.5039L4.75 63.5059L4.74609 63.5039C4.61328 63.7565 4.38997 63.8828 4.07617 63.8828C3.82227 63.8828 3.61198 63.7956 3.44531 63.6211C3.27865 63.4466 3.19531 63.2201 3.19531 62.9414C3.19531 62.6445 3.28646 62.401 3.46875 62.2109C3.65104 62.0195 3.88737 61.9238 4.17773 61.9238C4.47852 61.9238 4.71354 62.0423 4.88281 62.2793C5.05208 62.515 5.13672 62.8587 5.13672 63.3105C5.13672 63.8691 5.02734 64.2988 4.80859 64.5996C4.58984 64.9004 4.28711 65.0508 3.90039 65.0508C3.68815 65.0508 3.50846 65.0163 3.36133 64.9473V64.5898ZM3.58203 62.8926C3.58203 63.0957 3.63411 63.2572 3.73828 63.377C3.84245 63.4954 3.98633 63.5547 4.16992 63.5547C4.32878 63.5547 4.46224 63.5007 4.57031 63.3926C4.67839 63.2832 4.73242 63.151 4.73242 62.9961C4.73242 62.7786 4.67839 62.599 4.57031 62.457C4.46354 62.3138 4.32227 62.2422 4.14648 62.2422C3.98372 62.2422 3.84896 62.304 3.74219 62.4277C3.63542 62.5514 3.58203 62.7064 3.58203 62.8926Z" fill="white"/>
<path d="M2.46875 73.9746V75.9727H2.92188V76.2891H2.46875V77H2.09766V76.2891H0.685547V75.9902C0.936849 75.7077 1.18945 75.3822 1.44336 75.0137C1.69727 74.6452 1.9069 74.2988 2.07227 73.9746H2.46875ZM1.11523 75.9727H2.09766V74.5312C1.96224 74.7747 1.81706 75.0111 1.66211 75.2402C1.50716 75.4681 1.32487 75.7122 1.11523 75.9727ZM5.05859 76.0664C5.05859 76.362 4.96029 76.6003 4.76367 76.7812C4.56836 76.9622 4.30534 77.0527 3.97461 77.0527C3.69076 77.0527 3.47917 77.0104 3.33984 76.9258V76.5352C3.54427 76.668 3.7526 76.7344 3.96484 76.7344C4.17578 76.7344 4.3457 76.6764 4.47461 76.5605C4.60482 76.4434 4.66992 76.2884 4.66992 76.0957C4.66992 75.903 4.60221 75.7533 4.4668 75.6465C4.33268 75.5384 4.14258 75.4844 3.89648 75.4844C3.70638 75.4844 3.53516 75.4928 3.38281 75.5098L3.49414 73.9746H4.9082V74.3105H3.81641L3.75391 75.168L4.0293 75.1562C4.34961 75.1562 4.60091 75.2363 4.7832 75.3965C4.9668 75.5553 5.05859 75.7786 5.05859 76.0664Z" fill="white"/>
<mask id="mask0_75_791" style="mask-type:luminance" maskUnits="userSpaceOnUse" x="8" y="2" width="244" height="73">
<path d="M252 2H8V74.3174H252V2Z" fill="white"/>
</mask>
<g mask="url(#mask0_75_791)">
<path d="M19.0897 61.1731L30.765 63.2211L42.4403 17.2444L54.1131 39.9805L65.7884 46.4027L77.4636 45.4635L89.1389 16.1878L100.812 26.4058L112.487 30.0539L124.162 49.9812L135.838 26.8102L147.52 29.6647L159.195 23.7948L170.871 40.3175L182.546 33.641L194.219 31.38L205.894 39.2066L217.569 23.5535L229.245 27.9429L240.917 20.1293" stroke="#ED844B" stroke-linecap="square" stroke-linejoin="round"/>
</g>
<mask id="mask1_75_791" style="mask-type:luminance" maskUnits="userSpaceOnUse" x="8" y="2" width="244" height="73">
<path d="M252 2H8V74.3174H252V2Z" fill="white"/>
</mask>
<g mask="url(#mask1_75_791)">
<path d="M19.104 61.7383C19.2366 61.7383 19.3638 61.6856 19.4576 61.5919C19.5513 61.4981 19.604 61.3709 19.604 61.2383C19.6041 61.1063 19.552 60.9796 19.459 60.8858C19.4125 60.839 19.3572 60.8019 19.2962 60.7766C19.2353 60.7513 19.17 60.7383 19.104 60.7383C18.9716 60.7389 18.8448 60.7919 18.7515 60.8858C18.6576 60.9791 18.6046 61.1059 18.604 61.2383C18.604 61.3709 18.6567 61.4981 18.7505 61.5919C18.8442 61.6856 18.9714 61.7383 19.104 61.7383Z" fill="#ED844B" stroke="#ED844B" stroke-width="1.5" stroke-linejoin="round"/>
<path d="M30.7791 63.7863C30.8948 63.7868 31.0071 63.7471 31.0969 63.6741C31.1866 63.601 31.2482 63.4991 31.2713 63.3857C31.2943 63.2724 31.2773 63.1545 31.2231 63.0522C31.1689 62.95 31.081 62.8697 30.9743 62.825C30.8675 62.7804 30.7486 62.7741 30.6378 62.8073C30.5269 62.8405 30.431 62.9111 30.3664 63.0071C30.3018 63.1031 30.2725 63.2186 30.2835 63.3337C30.2945 63.4489 30.3451 63.5567 30.4266 63.6388C30.52 63.7327 30.6467 63.7857 30.7791 63.7863Z" fill="#ED844B" stroke="#ED844B" stroke-width="1.5" stroke-linejoin="round"/>
<path d="M42.4545 17.8096C42.5871 17.8096 42.7143 17.7569 42.808 17.6631C42.9018 17.5694 42.9545 17.4422 42.9545 17.3096C42.9545 17.177 42.9018 17.0498 42.808 16.956C42.7143 16.8623 42.5871 16.8096 42.4545 16.8096C42.3219 16.8096 42.1947 16.8623 42.1009 16.956C42.0071 17.0498 41.9545 17.177 41.9545 17.3096C41.9545 17.4422 42.0071 17.5694 42.1009 17.6631C42.1947 17.7569 42.3219 17.8096 42.4545 17.8096Z" fill="#ED844B" stroke="#ED844B" stroke-width="1.5" stroke-linejoin="round"/>
<path d="M54.1272 40.5457C54.2598 40.5457 54.387 40.4931 54.4808 40.3993C54.5745 40.3055 54.6272 40.1784 54.6272 40.0457C54.6272 39.9131 54.5745 39.786 54.4808 39.6922C54.387 39.5984 54.2598 39.5457 54.1272 39.5457C53.9946 39.5457 53.8674 39.5984 53.7736 39.6922C53.6799 39.786 53.6272 39.9131 53.6272 40.0457C53.6271 40.1117 53.6402 40.1771 53.6655 40.238C53.6908 40.2989 53.7279 40.3542 53.7747 40.4007C53.8684 40.4937 53.9952 40.5459 54.1272 40.5457Z" fill="#ED844B" stroke="#ED844B" stroke-width="1.5" stroke-linejoin="round"/>
<path d="M65.8026 46.957C65.9352 46.957 66.0624 46.9043 66.1562 46.8106C66.2499 46.7168 66.3026 46.5896 66.3026 46.457C66.3026 46.3244 66.2499 46.1972 66.1562 46.1034C66.0624 46.0097 65.9352 45.957 65.8026 45.957C65.67 45.957 65.5428 46.0097 65.4491 46.1034C65.3553 46.1972 65.3026 46.3244 65.3026 46.457C65.3026 46.5896 65.3553 46.7168 65.4491 46.8106C65.5428 46.9043 65.67 46.957 65.8026 46.957Z" fill="#ED844B" stroke="#ED844B" stroke-width="1.5" stroke-linejoin="round"/>
<path d="M77.4779 46.0178C77.5936 46.0183 77.7059 45.9786 77.7956 45.9056C77.8853 45.8326 77.947 45.7307 77.97 45.6173C77.993 45.5039 77.976 45.386 77.9218 45.2838C77.8677 45.1815 77.7797 45.1012 77.673 45.0566C77.5662 45.0119 77.4473 45.0056 77.3365 45.0388C77.2257 45.072 77.1298 45.1427 77.0652 45.2387C77.0006 45.3346 76.9713 45.4501 76.9822 45.5653C76.9932 45.6804 77.0438 45.7882 77.1254 45.8703C77.2187 45.9642 77.3455 46.0172 77.4779 46.0178Z" fill="#ED844B" stroke="#ED844B" stroke-width="1.5" stroke-linejoin="round"/>
<path d="M89.1532 16.7421C89.2858 16.7421 89.413 16.6894 89.5068 16.5957C89.6005 16.5019 89.6532 16.3747 89.6532 16.2421C89.6532 16.1095 89.6005 15.9823 89.5068 15.8886C89.413 15.7948 89.2858 15.7421 89.1532 15.7421C89.0872 15.7421 89.0219 15.7551 88.961 15.7804C88.9 15.8057 88.8447 15.8428 88.7982 15.8896C88.7052 15.9834 88.6531 16.1101 88.6532 16.2421C88.6532 16.3747 88.7059 16.5019 88.7997 16.5957C88.8934 16.6894 89.0206 16.7421 89.1532 16.7421Z" fill="#ED844B" stroke="#ED844B" stroke-width="1.5" stroke-linejoin="round"/>
<path d="M100.826 26.9645C100.959 26.9645 101.086 26.9118 101.179 26.818C101.273 26.7243 101.326 26.5971 101.326 26.4645C101.326 26.3319 101.273 26.2047 101.179 26.1109C101.086 26.0172 100.959 25.9645 100.826 25.9645C100.693 25.9645 100.566 26.0172 100.472 26.1109C100.379 26.2047 100.326 26.3319 100.326 26.4645C100.326 26.5971 100.379 26.7243 100.472 26.818C100.566 26.9118 100.693 26.9645 100.826 26.9645Z" fill="#ED844B" stroke="#ED844B" stroke-width="1.5" stroke-linejoin="round"/>
<path d="M112.501 30.6125C112.634 30.6125 112.761 30.5599 112.855 30.4661C112.948 30.3723 113.001 30.2451 113.001 30.1125C113.001 29.9805 112.949 29.8538 112.856 29.76C112.81 29.7132 112.754 29.6761 112.693 29.6508C112.632 29.6255 112.567 29.6125 112.501 29.6125C112.369 29.6131 112.242 29.6661 112.149 29.76C112.055 29.8534 112.002 29.9801 112.001 30.1125C112.001 30.2451 112.054 30.3723 112.148 30.4661C112.241 30.5599 112.368 30.6125 112.501 30.6125Z" fill="#ED844B" stroke="#ED844B" stroke-width="1.5" stroke-linejoin="round"/>
<path d="M124.177 50.5463C124.309 50.5463 124.436 50.4936 124.53 50.3999C124.624 50.3061 124.677 50.1789 124.677 50.0463C124.677 49.9137 124.624 49.7865 124.53 49.6928C124.436 49.599 124.309 49.5463 124.177 49.5463C124.044 49.5463 123.917 49.599 123.823 49.6928C123.729 49.7865 123.677 49.9137 123.677 50.0463C123.677 50.1789 123.729 50.3061 123.823 50.3999C123.917 50.4936 124.044 50.5463 124.177 50.5463Z" fill="#ED844B" stroke="#ED844B" stroke-width="1.5" stroke-linejoin="round"/>
<path d="M135.852 27.3754C135.984 27.3754 136.112 27.3227 136.205 27.2289C136.299 27.1352 136.352 27.008 136.352 26.8754C136.352 26.7428 136.299 26.6156 136.205 26.5218C136.112 26.4281 135.984 26.3754 135.852 26.3754C135.719 26.3754 135.592 26.4281 135.498 26.5218C135.404 26.6156 135.352 26.7428 135.352 26.8754C135.352 27.008 135.404 27.1352 135.498 27.2289C135.592 27.3227 135.719 27.3754 135.852 27.3754Z" fill="#ED844B" stroke="#ED844B" stroke-width="1.5" stroke-linejoin="round"/>
<path d="M147.534 30.2299C147.667 30.2299 147.794 30.1772 147.888 30.0834C147.982 29.9897 148.034 29.8625 148.034 29.7299C148.034 29.5979 147.982 29.4711 147.889 29.3774C147.843 29.3306 147.787 29.2935 147.727 29.2682C147.666 29.2428 147.6 29.2298 147.534 29.2299C147.402 29.2304 147.275 29.2835 147.182 29.3774C147.088 29.4707 147.035 29.5975 147.034 29.7299C147.034 29.8625 147.087 29.9897 147.181 30.0834C147.275 30.1772 147.402 30.2299 147.534 30.2299Z" fill="#ED844B" stroke="#ED844B" stroke-width="1.5" stroke-linejoin="round"/>
<path d="M159.195 24.3665C159.328 24.3665 159.455 24.3138 159.549 24.22C159.642 24.1263 159.695 23.9991 159.695 23.8665C159.695 23.7339 159.642 23.6067 159.549 23.5129C159.455 23.4192 159.328 23.3665 159.195 23.3665C159.062 23.3665 158.935 23.4192 158.842 23.5129C158.748 23.6067 158.695 23.7339 158.695 23.8665C158.695 23.9991 158.748 24.1263 158.842 24.22C158.935 24.3138 159.062 24.3665 159.195 24.3665Z" fill="#ED844B" stroke="#ED844B" stroke-width="1.5" stroke-linejoin="round"/>
<path d="M170.875 40.8979C171.008 40.8979 171.135 40.8453 171.229 40.7515C171.322 40.6577 171.375 40.5306 171.375 40.3979C171.375 40.2653 171.322 40.1382 171.229 40.0444C171.135 39.9506 171.008 39.8979 170.875 39.8979C170.743 39.8979 170.615 39.9506 170.522 40.0444C170.428 40.1382 170.375 40.2653 170.375 40.3979C170.375 40.5306 170.428 40.6577 170.522 40.7515C170.615 40.8453 170.743 40.8979 170.875 40.8979Z" fill="#ED844B" stroke="#ED844B" stroke-width="1.5" stroke-linejoin="round"/>
<path d="M182.55 34.2214C182.683 34.2214 182.81 34.1688 182.904 34.075C182.998 33.9812 183.05 33.854 183.05 33.7214C183.05 33.5888 182.998 33.4616 182.904 33.3679C182.81 33.2741 182.683 33.2214 182.55 33.2214C182.418 33.2214 182.29 33.2741 182.197 33.3679C182.103 33.4616 182.05 33.5888 182.05 33.7214C182.05 33.854 182.103 33.9812 182.197 34.075C182.29 34.1688 182.418 34.2214 182.55 34.2214Z" fill="#ED844B" stroke="#ED844B" stroke-width="1.5" stroke-linejoin="round"/>
<path d="M194.223 31.9604C194.356 31.9604 194.483 31.9078 194.577 31.814C194.671 31.7202 194.723 31.593 194.723 31.4604C194.723 31.3278 194.671 31.2006 194.577 31.1069C194.483 31.0131 194.356 30.9604 194.223 30.9604C194.091 30.9604 193.963 31.0131 193.87 31.1069C193.776 31.2006 193.723 31.3278 193.723 31.4604C193.723 31.593 193.776 31.7202 193.87 31.814C193.963 31.9078 194.091 31.9604 194.223 31.9604Z" fill="#ED844B" stroke="#ED844B" stroke-width="1.5" stroke-linejoin="round"/>
<path d="M205.898 39.7848C206.031 39.7848 206.158 39.7321 206.252 39.6384C206.346 39.5446 206.398 39.4174 206.398 39.2848C206.398 39.1522 206.346 39.025 206.252 38.9313C206.158 38.8375 206.031 38.7848 205.898 38.7848C205.766 38.7848 205.639 38.8375 205.545 38.9313C205.451 39.025 205.398 39.1522 205.398 39.2848C205.398 39.4174 205.451 39.5446 205.545 39.6384C205.639 39.7321 205.766 39.7848 205.898 39.7848Z" fill="#ED844B" stroke="#ED844B" stroke-width="1.5" stroke-linejoin="round"/>
<path d="M217.574 24.1317C217.706 24.1317 217.834 24.079 217.927 23.9853C218.021 23.8915 218.074 23.7643 218.074 23.6317C218.074 23.4991 218.021 23.3719 217.927 23.2782C217.834 23.1844 217.706 23.1317 217.574 23.1317C217.441 23.1317 217.314 23.1844 217.22 23.2782C217.126 23.3719 217.074 23.4991 217.074 23.6317C217.074 23.7643 217.126 23.8915 217.22 23.9853C217.314 24.079 217.441 24.1317 217.574 24.1317Z" fill="#ED844B" stroke="#ED844B" stroke-width="1.5" stroke-linejoin="round"/>
<path d="M229.249 28.5211C229.381 28.5212 229.508 28.4691 229.602 28.3761C229.648 28.3296 229.685 28.2743 229.711 28.2133C229.736 28.1524 229.749 28.0871 229.749 28.0211C229.748 27.8887 229.695 27.7619 229.602 27.6686C229.508 27.5747 229.381 27.5216 229.249 27.5211C229.116 27.5211 228.989 27.5738 228.895 27.6675C228.802 27.7613 228.749 27.8885 228.749 28.0211C228.749 28.1537 228.802 28.2809 228.895 28.3746C228.989 28.4684 229.116 28.5211 229.249 28.5211Z" fill="#ED844B" stroke="#ED844B" stroke-width="1.5" stroke-linejoin="round"/>
<path d="M240.922 20.7076C241.055 20.7076 241.182 20.6549 241.276 20.5611C241.369 20.4674 241.422 20.3402 241.422 20.2076C241.422 20.075 241.369 19.9478 241.276 19.854C241.182 19.7603 241.055 19.7076 240.922 19.7076C240.789 19.7076 240.662 19.7603 240.568 19.854C240.475 19.9478 240.422 20.075 240.422 20.2076C240.422 20.3402 240.475 20.4674 240.568 20.5611C240.662 20.6549 240.789 20.7076 240.922 20.7076Z" fill="#ED844B" stroke="#ED844B" stroke-width="1.5" stroke-linejoin="round"/>
</g>
<path d="M83.8281 11.9219V11.377C84.0378 11.5046 84.2611 11.5684 84.498 11.5684C84.6764 11.5684 84.8158 11.5247 84.916 11.4375C85.0176 11.349 85.0684 11.2298 85.0684 11.0801C85.0684 10.7663 84.8535 10.6094 84.4238 10.6094C84.265 10.6094 84.082 10.6211 83.875 10.6445L83.9883 8.97461H85.5898V9.49414H84.498L84.4551 10.1309C84.5632 10.1217 84.6628 10.1172 84.7539 10.1172C85.0495 10.1172 85.2826 10.1979 85.4531 10.3594C85.625 10.5208 85.7109 10.7396 85.7109 11.0156C85.7109 11.3203 85.6074 11.5697 85.4004 11.7637C85.1934 11.9564 84.9121 12.0527 84.5566 12.0527C84.2689 12.0527 84.026 12.0091 83.8281 11.9219ZM86.2988 11.4121C86.4603 11.5163 86.6504 11.5684 86.8691 11.5684C87.3574 11.5684 87.6068 11.2507 87.6172 10.6152L87.6055 10.6113C87.4727 10.8158 87.2676 10.918 86.9902 10.918C86.7389 10.918 86.5319 10.8301 86.3691 10.6543C86.2077 10.4772 86.127 10.2546 86.127 9.98633C86.127 9.67122 86.2246 9.41536 86.4199 9.21875C86.6152 9.02214 86.8698 8.92383 87.1836 8.92383C87.5104 8.92383 87.7669 9.04818 87.9531 9.29688C88.1393 9.54557 88.2324 9.89258 88.2324 10.3379C88.2324 10.8665 88.1198 11.2845 87.8945 11.5918C87.6706 11.8991 87.3477 12.0527 86.9258 12.0527C86.6875 12.0527 86.4785 12.0143 86.2988 11.9375V11.4121ZM86.7461 9.92969C86.7461 10.0898 86.7845 10.2155 86.8613 10.3066C86.9395 10.3978 87.0456 10.4434 87.1797 10.4434C87.2995 10.4434 87.3978 10.3997 87.4746 10.3125C87.5527 10.2253 87.5918 10.1172 87.5918 9.98828C87.5918 9.83333 87.5527 9.69792 87.4746 9.58203C87.3978 9.46615 87.2943 9.4082 87.1641 9.4082C87.0378 9.4082 86.9362 9.45833 86.8594 9.55859C86.7839 9.65885 86.7461 9.78255 86.7461 9.92969ZM88.623 11.7168C88.623 11.6191 88.6602 11.5391 88.7344 11.4766C88.8086 11.4141 88.8971 11.3828 89 11.3828C89.1042 11.3828 89.1921 11.4147 89.2637 11.4785C89.3353 11.5423 89.3711 11.6217 89.3711 11.7168C89.3711 11.8171 89.3353 11.8984 89.2637 11.9609C89.1921 12.0221 89.1016 12.0527 88.9922 12.0527C88.8906 12.0527 88.8034 12.0208 88.7305 11.957C88.6589 11.8932 88.623 11.8132 88.623 11.7168ZM91.5625 8.97461V10.8965H91.9902V11.3555H91.5625V12H90.9883V11.3555H89.6367V10.8926C89.9167 10.5801 90.179 10.2493 90.4238 9.90039C90.6686 9.55143 90.8535 9.24284 90.9785 8.97461H91.5625ZM90.1953 10.8965H90.9883V9.78711C90.9258 9.9043 90.8359 10.0462 90.7188 10.2129C90.6029 10.3796 90.4284 10.6074 90.1953 10.8965ZM94.3379 9.35938C94.0931 9.79818 93.9102 10.1517 93.7891 10.4199C93.6693 10.6882 93.5716 10.9492 93.4961 11.2031C93.4206 11.457 93.3626 11.7227 93.3223 12H92.6445C92.7096 11.6055 92.8242 11.2064 92.9883 10.8027C93.1536 10.3978 93.3815 9.96159 93.6719 9.49414H92.2285V8.97461H94.3379V9.35938Z" fill="#ED844B"/>
</svg>
