<svg width="24" height="24" viewBox="0 0 24 24" fill="none" xmlns="http://www.w3.org/2000/svg">
<rect width="24" height="24" rx="2" fill="#0CB595"/>
<path d="M4.5 16.4197V11.118C4.5 10.3747 5.28231 9.89116 5.94721 10.2236L10.9472 12.7236C11.286 12.893 11.5 13.2393 11.5 13.618V19.2768C11.5 20.0446 10.6705 20.526 10.0039 20.1451L5.00386 17.2879C4.69229 17.1099 4.5 16.7785 4.5 16.4197Z" fill="white"/>
<path d="M19.5 16.4197V11.118C19.5 10.3747 18.7177 9.89116 18.0528 10.2236L13.0528 12.7236C12.714 12.893 12.5 13.2393 12.5 13.618V19.2768C12.5 20.0446 13.3295 20.526 13.9961 20.1451L18.9961 17.2879C19.3077 17.1099 19.5 16.7785 19.5 16.4197Z" fill="white"/>
<path d="M5.78885 8.89443L11.5528 11.7764C11.8343 11.9172 12.1657 11.9172 12.4472 11.7764L18.2111 8.89443C18.9482 8.5259 18.9482 7.4741 18.2111 7.10557L12.4472 4.22361C12.1657 4.08284 11.8343 4.08284 11.5528 4.22361L5.78885 7.10557C5.05181 7.4741 5.05181 8.5259 5.78885 8.89443Z" fill="white"/>
</svg>
